<?xml version="1.0" encoding="UTF-8"?>
<svg id="Layer_2" xmlns="http://www.w3.org/2000/svg" xmlns:xlink="http://www.w3.org/1999/xlink" viewBox="0 0 551.29 539.62">
  <defs>
    <style>
      .cls-1 {
        opacity: .9;
      }

      .cls-1, .cls-2, .cls-3, .cls-4, .cls-5 {
        fill: #1f140f;
      }

      .cls-6 {
        fill: url(#GradientFill_2-2);
      }

      .cls-6, .cls-7, .cls-8 {
        fill-rule: evenodd;
      }

      .cls-3 {
        opacity: .2;
      }

      .cls-9 {
        fill: none;
      }

      .cls-4 {
        opacity: .6;
      }

      .cls-7 {
        fill: url(#GradientFill_1);
      }

      .cls-8 {
        fill: url(#GradientFill_2);
      }

      .cls-5 {
        opacity: .4;
      }

      .cls-10 {
        clip-path: url(#clippath);
      }
    </style>
    <clipPath id="clippath">
      <rect class="cls-9" width="551.29" height="539.62"/>
    </clipPath>
    <linearGradient id="GradientFill_1" data-name="GradientFill 1" x1="149.66" y1="-39.21" x2="327.07" y2="672.35" gradientUnits="userSpaceOnUse">
      <stop offset="0" stop-color="#d83124"/>
      <stop offset="0" stop-color="#d63024"/>
      <stop offset=".19" stop-color="#b62c24"/>
      <stop offset=".38" stop-color="#9c2924"/>
      <stop offset=".57" stop-color="#8a2624"/>
      <stop offset=".77" stop-color="#7f2524"/>
      <stop offset="1" stop-color="#7c2524"/>
    </linearGradient>
    <linearGradient id="GradientFill_2" data-name="GradientFill 2" x1="323.87" y1="-54.65" x2="437.29" y2="212.55" gradientUnits="userSpaceOnUse">
      <stop offset="0" stop-color="#d83124"/>
      <stop offset=".25" stop-color="#b82c24"/>
      <stop offset=".56" stop-color="#972824"/>
      <stop offset=".82" stop-color="#832524"/>
      <stop offset="1" stop-color="#7c2524"/>
    </linearGradient>
    <linearGradient id="GradientFill_2-2" data-name="GradientFill 2" x1="382.89" y1="19.62" x2="451.9" y2="174.61" xlink:href="#GradientFill_2"/>
  </defs>
  <g id="Layer_1-2" data-name="Layer_1">
    <g>
      <g class="cls-10">
        <g>
          <path class="cls-2" d="M16.29,545.4l-2.06,1.01-6.42-13.16c-.27.72-.69,1.51-1.27,2.38-.57.87-1.13,1.58-1.65,2.13l-.97-1.99c.89-1.11,1.58-2.26,2.06-3.45.49-1.2.74-2.25.74-3.15l1.33-.65,8.23,16.89Z"/>
          <path class="cls-2" d="M16.66,534.8c-1.21-1.86-1.99-3.47-2.34-4.85-.35-1.38-.35-2.62,0-3.73.35-1.1,1.1-2.02,2.24-2.76.85-.56,1.7-.86,2.55-.94.86-.08,1.7.08,2.53.45.83.37,1.66.93,2.49,1.7.83.76,1.75,1.93,2.76,3.48,1.19,1.84,1.97,3.45,2.33,4.82.36,1.39.36,2.62,0,3.73-.35,1.11-1.1,2.03-2.25,2.78-1.52.98-3.06,1.22-4.62.69-1.88-.64-3.79-2.43-5.7-5.38h0ZM18.64,533.52c1.67,2.57,3.09,4.09,4.25,4.55,1.16.46,2.18.41,3.06-.16.88-.58,1.34-1.49,1.39-2.75.04-1.24-.76-3.15-2.43-5.72-1.68-2.58-3.09-4.1-4.25-4.55-1.15-.47-2.18-.4-3.08.18-.89.58-1.35,1.41-1.39,2.51-.04,1.38.78,3.37,2.45,5.95Z"/>
          <path class="cls-2" d="M40.68,529.44l-1.88,1.32-8.39-11.99c-.15.75-.44,1.59-.87,2.54-.44.95-.87,1.73-1.3,2.36l-1.27-1.82c.7-1.23,1.2-2.48,1.5-3.73.29-1.25.37-2.33.23-3.23l1.21-.84,10.78,15.39Z"/>
          <path class="cls-2" d="M39.66,518.81c-1.39-1.72-2.34-3.24-2.83-4.58-.5-1.34-.63-2.58-.39-3.71.24-1.13.88-2.13,1.94-2.98.79-.63,1.59-1.02,2.44-1.19.84-.17,1.69-.11,2.56.18.86.28,1.74.76,2.64,1.44.92.67,1.95,1.72,3.12,3.17,1.39,1.71,2.32,3.23,2.82,4.56.5,1.34.63,2.57.4,3.7-.23,1.14-.88,2.14-1.95,3-1.4,1.14-2.91,1.53-4.52,1.17-1.94-.43-4.02-2.02-6.23-4.75h0ZM41.5,517.32c1.93,2.39,3.5,3.75,4.7,4.09,1.2.34,2.21.18,3.02-.48.82-.66,1.19-1.62,1.1-2.87-.07-1.25-1.09-3.06-3.01-5.44-1.94-2.4-3.51-3.76-4.71-4.09-1.19-.34-2.21-.17-3.04.51-.82.66-1.2,1.54-1.12,2.64.1,1.38,1.12,3.27,3.05,5.65Z"/>
          <path class="cls-2" d="M63.23,511.25l-1.76,1.48-9.41-11.22c-.09.76-.3,1.63-.65,2.61-.35.98-.71,1.8-1.09,2.47l-1.43-1.7c.59-1.29.99-2.57,1.17-3.85.18-1.27.16-2.35-.05-3.23l1.13-.95,12.08,14.4Z"/>
          <path class="cls-2" d="M72.85,503.02l-1.73,1.5-9.6-11.05c-.07.76-.27,1.63-.6,2.62-.34.99-.69,1.82-1.05,2.48l-1.46-1.67c.58-1.3.94-2.59,1.1-3.87.16-1.28.13-2.36-.1-3.23l1.12-.97,12.32,14.19Z"/>
          <path class="cls-2" d="M82.2,494.27l-1.71,1.54-9.79-10.88c-.06.76-.24,1.64-.56,2.63-.32,1-.65,1.83-1.01,2.5l-1.49-1.65c.55-1.31.89-2.6,1.04-3.88.14-1.28.08-2.36-.16-3.23l1.1-.99,12.57,13.97Z"/>
          <path class="cls-2" d="M79.95,483.71c-1.54-1.59-2.61-3.03-3.22-4.32-.61-1.28-.85-2.5-.71-3.65.14-1.15.7-2.19,1.67-3.14.72-.7,1.5-1.16,2.32-1.4.83-.24,1.68-.25,2.57-.04.89.2,1.81.6,2.77,1.19.96.59,2.09,1.55,3.37,2.89,1.53,1.58,2.6,3.01,3.21,4.3.62,1.29.85,2.5.72,3.66-.14,1.15-.69,2.21-1.68,3.16-1.3,1.25-2.76,1.77-4.4,1.56-1.97-.27-4.17-1.66-6.61-4.19h0ZM81.65,482.08c2.13,2.21,3.81,3.43,5.04,3.66,1.22.23,2.21-.01,2.97-.74.76-.74,1.04-1.72.85-2.96-.19-1.23-1.35-2.96-3.48-5.15-2.14-2.21-3.82-3.44-5.04-3.66-1.22-.23-2.22.03-2.99.77-.76.74-1.05,1.64-.89,2.72.22,1.37,1.4,3.16,3.54,5.37Z"/>
          <path class="cls-2" d="M102.82,474.03l-1.62,1.63-10.35-10.36c-.02.76-.16,1.65-.42,2.66-.27,1.01-.55,1.86-.87,2.55l-1.57-1.57c.48-1.34.76-2.65.83-3.94.07-1.29-.04-2.36-.33-3.22l1.04-1.05,13.29,13.29Z"/>
          <path class="cls-2" d="M100.53,463.42c-1.56-1.57-2.66-2.99-3.29-4.26-.63-1.28-.89-2.49-.77-3.65.12-1.15.66-2.21,1.62-3.17.71-.71,1.48-1.19,2.3-1.44.82-.25,1.67-.28,2.57-.09.89.19,1.82.57,2.79,1.15.97.57,2.12,1.51,3.42,2.83,1.56,1.55,2.65,2.96,3.28,4.23.64,1.28.89,2.5.78,3.65-.11,1.16-.66,2.21-1.63,3.19-1.27,1.27-2.74,1.82-4.37,1.63-1.98-.23-4.21-1.58-6.69-4.07h0ZM102.21,461.75c2.17,2.17,3.87,3.36,5.1,3.58,1.22.21,2.21-.06,2.96-.8.75-.75,1.02-1.74.8-2.97-.22-1.23-1.41-2.93-3.57-5.09-2.18-2.18-3.89-3.37-5.1-3.57-1.22-.22-2.22.06-2.98.82-.75.74-1.02,1.66-.84,2.74.25,1.36,1.46,3.13,3.64,5.3Z"/>
          <path class="cls-2" d="M117.96,445.33c-1.61-1.51-2.76-2.89-3.43-4.14-.68-1.26-.98-2.46-.91-3.62.08-1.16.58-2.23,1.51-3.23.69-.73,1.44-1.24,2.25-1.52.81-.28,1.66-.34,2.56-.18.89.16,1.83.51,2.82,1.05,1,.54,2.17,1.44,3.52,2.71,1.61,1.5,2.75,2.87,3.43,4.12.68,1.26.98,2.46.91,3.62-.07,1.16-.58,2.24-1.52,3.24-1.23,1.31-2.67,1.92-4.31,1.78-1.98-.16-4.26-1.44-6.83-3.83h0ZM119.57,443.61c2.25,2.09,3.99,3.22,5.22,3.39,1.23.17,2.21-.13,2.93-.91.73-.77.95-1.77.69-2.99-.26-1.22-1.51-2.87-3.75-4.97-2.25-2.1-3.99-3.23-5.23-3.4-1.23-.16-2.21.14-2.94.93-.72.77-.97,1.7-.75,2.77.29,1.35,1.57,3.08,3.82,5.18Z"/>
          <path class="cls-2" d="M127.79,434.87c-1.62-1.51-2.76-2.89-3.44-4.14-.68-1.25-.97-2.46-.9-3.61.07-1.16.58-2.23,1.51-3.23.69-.74,1.44-1.24,2.25-1.52.81-.29,1.66-.34,2.56-.18.89.15,1.83.51,2.83,1.05.99.55,2.16,1.44,3.52,2.71,1.61,1.5,2.75,2.88,3.43,4.12.68,1.25.98,2.46.91,3.61-.07,1.16-.58,2.24-1.51,3.24-1.23,1.32-2.67,1.92-4.32,1.79-1.98-.16-4.26-1.44-6.83-3.84h0ZM129.41,433.14c2.24,2.1,3.99,3.22,5.22,3.4,1.23.16,2.21-.13,2.93-.9.72-.78.95-1.78.69-3-.26-1.22-1.5-2.88-3.75-4.97-2.25-2.1-3.99-3.24-5.23-3.4-1.23-.16-2.21.15-2.94.93-.72.77-.97,1.69-.75,2.77.29,1.34,1.56,3.08,3.81,5.17Z"/>
          <path class="cls-2" d="M144.83,416.15c-1.65-1.48-2.82-2.84-3.51-4.08-.7-1.24-1.02-2.45-.96-3.6.06-1.16.54-2.24,1.45-3.25.68-.75,1.41-1.26,2.22-1.56.81-.3,1.65-.37,2.55-.23.9.15,1.84.49,2.85,1,1,.52,2.19,1.4,3.57,2.65,1.63,1.47,2.79,2.82,3.5,4.06.7,1.24,1.02,2.44.97,3.6-.05,1.16-.54,2.25-1.46,3.27-1.21,1.34-2.63,1.96-4.28,1.86-1.98-.12-4.28-1.36-6.89-3.71h0ZM146.41,414.4c2.28,2.05,4.04,3.16,5.28,3.3,1.24.14,2.21-.17,2.91-.95.71-.79.92-1.79.64-3.01-.28-1.22-1.56-2.85-3.83-4.9-2.29-2.06-4.06-3.16-5.29-3.31-1.24-.14-2.21.18-2.93.98-.71.79-.94,1.71-.69,2.78.31,1.35,1.61,3.05,3.9,5.11Z"/>
          <path class="cls-2" d="M154.4,405.18c-1.65-1.48-2.82-2.85-3.51-4.08-.71-1.24-1.02-2.44-.97-3.6.06-1.16.54-2.25,1.45-3.25.68-.75,1.41-1.26,2.22-1.56.8-.29,1.66-.37,2.55-.23.9.15,1.85.48,2.84,1,1.01.52,2.19,1.41,3.57,2.65,1.63,1.47,2.8,2.82,3.5,4.06.7,1.24,1.02,2.44.97,3.6-.05,1.15-.54,2.24-1.46,3.26-1.21,1.34-2.64,1.96-4.29,1.86-1.98-.13-4.28-1.37-6.89-3.72h0ZM155.97,403.42c2.29,2.06,4.05,3.15,5.29,3.3,1.23.15,2.21-.16,2.91-.95.71-.79.92-1.79.64-3-.28-1.22-1.55-2.85-3.83-4.9-2.29-2.06-4.05-3.16-5.29-3.31-1.23-.14-2.2.19-2.92.98-.71.79-.94,1.71-.7,2.78.31,1.34,1.61,3.05,3.9,5.1Z"/>
          <path class="cls-2" d="M176.49,393.83l-1.51,1.73-11.05-9.6c.04.76-.04,1.65-.23,2.68-.19,1.03-.43,1.9-.69,2.6l-1.67-1.46c.38-1.37.57-2.7.56-3.99-.02-1.29-.2-2.35-.55-3.18l.97-1.12,14.18,12.33Z"/>
          <path class="cls-2" d="M184.65,384.42l-1.51,1.73-11.05-9.6c.04.76-.04,1.65-.23,2.67-.19,1.03-.42,1.9-.69,2.6l-1.67-1.45c.38-1.36.56-2.7.55-3.98-.02-1.29-.2-2.35-.55-3.19l.97-1.12,14.18,12.33Z"/>
          <path class="cls-2" d="M181.31,373.65c-1.67-1.45-2.86-2.79-3.58-4.02-.72-1.23-1.06-2.42-1.03-3.58.04-1.16.51-2.25,1.39-3.28.66-.76,1.39-1.29,2.2-1.59.8-.31,1.64-.4,2.55-.27.89.13,1.85.44,2.86.95,1.02.5,2.21,1.36,3.61,2.58,1.66,1.44,2.85,2.77,3.57,4,.72,1.23,1.06,2.42,1.03,3.58-.04,1.16-.51,2.26-1.41,3.29-1.19,1.36-2.59,2-4.25,1.93-1.98-.09-4.3-1.29-6.96-3.6h0ZM182.87,371.87c2.32,2.01,4.1,3.08,5.34,3.21,1.24.12,2.2-.21,2.89-1.01.69-.79.89-1.8.59-3.01-.29-1.21-1.6-2.82-3.91-4.83-2.33-2.02-4.11-3.09-5.35-3.21-1.23-.12-2.2.22-2.91,1.03-.69.8-.91,1.73-.65,2.79.34,1.34,1.67,3.02,3.99,5.04Z"/>
          <path class="cls-2" d="M191.01,362.56c-1.64-1.48-2.81-2.84-3.51-4.08-.7-1.24-1.02-2.44-.96-3.6.06-1.16.54-2.24,1.45-3.25.68-.75,1.41-1.26,2.22-1.56.8-.3,1.66-.37,2.55-.23.9.14,1.85.48,2.84,1,1,.53,2.2,1.41,3.57,2.65,1.63,1.46,2.8,2.82,3.5,4.06.7,1.24,1.02,2.43.97,3.59-.06,1.16-.55,2.25-1.46,3.27-1.21,1.33-2.63,1.95-4.28,1.85-1.98-.13-4.28-1.36-6.89-3.72h0ZM192.59,360.81c2.28,2.06,4.04,3.16,5.28,3.3,1.24.15,2.21-.17,2.91-.96.71-.79.92-1.78.64-3-.27-1.22-1.55-2.85-3.83-4.9-2.29-2.06-4.05-3.16-5.28-3.3-1.23-.14-2.21.18-2.93.97-.71.79-.93,1.71-.69,2.77.31,1.35,1.62,3.06,3.9,5.11Z"/>
          <path class="cls-2" d="M213.49,351.56l-1.6,1.65-10.53-10.17c0,.76-.13,1.65-.37,2.66-.25,1.02-.52,1.87-.83,2.56l-1.6-1.54c.46-1.34.71-2.66.76-3.95.04-1.29-.08-2.36-.38-3.21l1.02-1.06,13.52,13.05Z"/>
          <path class="cls-2" d="M211.05,340.35c-1.51-1.62-2.56-3.08-3.14-4.38-.59-1.29-.8-2.52-.65-3.67.16-1.15.74-2.19,1.73-3.11.74-.69,1.52-1.14,2.34-1.36.83-.23,1.68-.22,2.57,0,.88.22,1.8.63,2.75,1.24.95.61,2.06,1.59,3.33,2.95,1.49,1.6,2.54,3.05,3.13,4.35.59,1.29.81,2.52.66,3.66-.16,1.15-.74,2.19-1.74,3.13-1.32,1.23-2.79,1.73-4.43,1.48-1.96-.3-4.15-1.73-6.54-4.3h0ZM212.78,338.75c2.09,2.24,3.76,3.49,4.97,3.75,1.22.25,2.21.02,2.98-.7.77-.72,1.07-1.7.9-2.94-.17-1.24-1.3-2.98-3.39-5.22-2.11-2.25-3.76-3.5-4.98-3.74-1.22-.26-2.21-.02-3,.71-.77.72-1.08,1.62-.94,2.7.2,1.37,1.35,3.19,3.45,5.44Z"/>
          <path class="cls-2" d="M234.29,331.27l-1.68,1.56-9.98-10.71c-.05.76-.21,1.64-.52,2.64-.29.99-.61,1.83-.96,2.51l-1.51-1.62c.52-1.31.85-2.62.97-3.9.11-1.28.04-2.36-.22-3.22l1.07-1.01,12.82,13.74Z"/>
          <path class="cls-2" d="M243.72,322.89l-1.73,1.51-9.6-11.05c-.07.76-.27,1.63-.6,2.62-.33.99-.68,1.82-1.05,2.49l-1.46-1.68c.57-1.3.94-2.59,1.1-3.87.16-1.28.13-2.36-.1-3.23l1.11-.98,12.33,14.19Z"/>
          <path class="cls-2" d="M253.24,314.66l-1.81,1.41-9.01-11.54c-.12.75-.36,1.61-.74,2.59-.39.97-.78,1.77-1.18,2.42l-1.36-1.75c.64-1.27,1.08-2.54,1.3-3.81.23-1.27.26-2.35.07-3.23l1.16-.91,11.57,14.81Z"/>
          <path class="cls-2" d="M252.15,303.57c-1.36-1.74-2.28-3.28-2.75-4.63-.47-1.34-.57-2.59-.32-3.71.26-1.13.92-2.11,2-2.95.79-.62,1.61-1,2.45-1.15.84-.15,1.7-.08,2.55.22.86.29,1.74.79,2.63,1.48.89.69,1.91,1.76,3.06,3.22,1.35,1.73,2.26,3.27,2.73,4.6.48,1.35.58,2.58.33,3.71-.25,1.13-.92,2.13-2,2.96-1.42,1.11-2.94,1.47-4.54,1.09-1.93-.46-3.98-2.09-6.14-4.85h0ZM254.01,302.11c1.89,2.41,3.43,3.8,4.63,4.17,1.2.35,2.2.21,3.04-.44.83-.65,1.21-1.61,1.16-2.85-.07-1.24-1.04-3.08-2.93-5.49-1.9-2.43-3.44-3.82-4.63-4.18-1.19-.36-2.21-.2-3.05.46-.83.65-1.22,1.52-1.16,2.62.07,1.38,1.06,3.29,2.95,5.71Z"/>
          <path class="cls-2" d="M276.26,296.89l-1.86,1.35-8.61-11.84c-.14.75-.41,1.6-.83,2.56-.41.96-.84,1.75-1.26,2.38l-1.31-1.8c.68-1.24,1.16-2.49,1.44-3.75.27-1.26.34-2.34.18-3.23l1.18-.87,11.06,15.2Z"/>
          <path class="cls-2" d="M286.7,289.85l-1.9,1.28-8.19-12.14c-.16.75-.47,1.59-.91,2.54-.46.94-.9,1.71-1.35,2.33l-1.23-1.84c.73-1.22,1.25-2.45,1.57-3.7.31-1.25.41-2.32.29-3.22l1.22-.83,10.51,15.58Z"/>
          <path class="cls-2" d="M297.13,282.82l-1.94,1.22-7.76-12.42c-.19.74-.52,1.57-1.01,2.49-.48.93-.96,1.69-1.43,2.29l-1.18-1.88c.77-1.2,1.34-2.41,1.69-3.65.36-1.24.5-2.31.41-3.21l1.25-.78,9.96,15.93Z"/>
          <path class="cls-2" d="M307.65,276.02l-1.95,1.22-7.75-12.42c-.19.74-.53,1.57-1.01,2.49-.48.92-.96,1.69-1.43,2.29l-1.17-1.88c.77-1.2,1.33-2.41,1.69-3.65.36-1.24.5-2.31.4-3.21l1.26-.78,9.96,15.93Z"/>
          <path class="cls-2" d="M308.16,264.8c-1.11-1.91-1.8-3.57-2.07-4.97-.29-1.4-.22-2.64.19-3.72.41-1.08,1.21-1.96,2.38-2.64.87-.51,1.74-.77,2.6-.8.86-.03,1.69.16,2.5.58.8.41,1.6,1.03,2.39,1.83.79.81,1.65,2.01,2.57,3.62,1.1,1.9,1.79,3.55,2.07,4.94.28,1.4.22,2.64-.19,3.73-.41,1.08-1.21,1.97-2.39,2.66-1.56.9-3.11,1.05-4.64.45-1.85-.73-3.66-2.62-5.41-5.67h0ZM310.21,263.62c1.54,2.66,2.87,4.25,4,4.77,1.13.52,2.15.52,3.07,0,.92-.53,1.42-1.42,1.54-2.66.11-1.24-.6-3.19-2.13-5.85-1.54-2.66-2.88-4.26-4.01-4.77-1.13-.52-2.16-.51-3.08.02-.92.53-1.42,1.34-1.52,2.43-.11,1.38.6,3.4,2.14,6.06Z"/>
          <path class="cls-2" d="M332.88,261.44l-2.03,1.08-6.87-12.93c-.24.73-.63,1.54-1.18,2.42-.55.89-1.07,1.62-1.58,2.19l-1.04-1.96c.85-1.14,1.5-2.31,1.94-3.53.45-1.21.66-2.26.63-3.17l1.3-.69,8.83,16.59Z"/>
          <path class="cls-2" d="M333.92,250.19c-.97-1.99-1.55-3.69-1.73-5.1-.18-1.41-.03-2.65.46-3.7.48-1.05,1.34-1.87,2.56-2.47.9-.45,1.78-.64,2.65-.6.85.02,1.67.27,2.44.74.79.47,1.54,1.13,2.27,1.99.74.86,1.51,2.13,2.32,3.79.96,1.97,1.54,3.66,1.72,5.07.18,1.41.03,2.64-.45,3.7-.48,1.06-1.34,1.88-2.57,2.49-1.62.79-3.18.83-4.67.12-1.79-.86-3.46-2.87-5-6.03h0ZM336.04,249.16c1.35,2.76,2.57,4.44,3.66,5.04,1.09.6,2.11.67,3.06.21.95-.47,1.52-1.32,1.72-2.55.2-1.23-.38-3.23-1.71-5.98-1.35-2.77-2.57-4.45-3.66-5.04-1.09-.6-2.12-.66-3.08-.19-.95.46-1.51,1.23-1.69,2.31-.21,1.36.36,3.43,1.7,6.2Z"/>
          <path class="cls-2" d="M358.79,248.31l-2.08.97-6.18-13.27c-.28.71-.71,1.49-1.3,2.35-.6.86-1.16,1.56-1.7,2.1l-.93-2.01c.9-1.1,1.62-2.23,2.13-3.41.51-1.19.77-2.23.79-3.14l1.34-.62,7.94,17.03Z"/>
          <path class="cls-2" d="M370.34,242.82l-2.08.97-6.18-13.28c-.28.71-.72,1.49-1.31,2.35-.6.85-1.16,1.56-1.69,2.1l-.94-2.01c.91-1.09,1.62-2.23,2.13-3.42.51-1.19.77-2.23.79-3.13l1.34-.62,7.94,17.03Z"/>
          <path class="cls-2" d="M381.78,237.9l-2.11.9-5.71-13.47c-.31.7-.77,1.47-1.39,2.3-.62.84-1.21,1.52-1.76,2.04l-.87-2.04c.94-1.06,1.69-2.18,2.24-3.34.55-1.17.85-2.21.9-3.11l1.36-.58,7.34,17.3Z"/>
          <path class="cls-2" d="M383.75,226.95c-.79-2.07-1.22-3.82-1.27-5.24-.06-1.42.2-2.64.78-3.65.58-1,1.5-1.74,2.76-2.23.94-.36,1.84-.49,2.69-.38.85.1,1.64.42,2.38.96.73.53,1.43,1.26,2.08,2.18.66.92,1.31,2.24,1.98,3.98.79,2.05,1.21,3.78,1.28,5.21.06,1.43-.2,2.64-.77,3.65-.57,1.01-1.5,1.76-2.78,2.26-1.68.64-3.23.55-4.66-.29-1.71-1.01-3.19-3.16-4.45-6.44h0ZM385.96,226.1c1.1,2.86,2.17,4.65,3.21,5.34,1.03.69,2.04.85,3.02.47.99-.38,1.64-1.17,1.94-2.39.31-1.21-.09-3.24-1.19-6.1-1.1-2.88-2.17-4.66-3.21-5.34-1.04-.69-2.05-.84-3.06-.46-.99.38-1.61,1.1-1.87,2.16-.33,1.34.05,3.45,1.16,6.32Z"/>
          <path class="cls-2" d="M408.69,227.13l-2.16.79-5.01-13.76c-.34.69-.84,1.43-1.5,2.23-.67.8-1.29,1.45-1.87,1.94l-.76-2.09c1-1.01,1.81-2.08,2.42-3.22.61-1.14.97-2.15,1.06-3.05l1.39-.5,6.43,17.66Z"/>
          <path class="cls-2" d="M411.31,216.41c-.71-2.09-1.08-3.85-1.09-5.27-.01-1.43.29-2.63.9-3.62.61-.98,1.56-1.69,2.85-2.14.95-.33,1.85-.42,2.7-.28.84.13,1.62.48,2.34,1.04.71.56,1.38,1.31,2,2.26.62.94,1.24,2.29,1.84,4.04.71,2.08,1.07,3.82,1.1,5.25.01,1.43-.29,2.63-.9,3.61-.6,1-1.56,1.71-2.86,2.15-1.71.59-3.25.44-4.65-.44-1.67-1.07-3.08-3.28-4.23-6.6h0ZM413.55,215.65c1,2.91,2.01,4.72,3.02,5.45,1.01.72,2.01.92,3.01.57,1-.34,1.67-1.12,2.02-2.31.34-1.2.02-3.25-.97-6.15-1-2.91-2.01-4.73-3.02-5.45-1.01-.73-2.02-.91-3.03-.57-1,.34-1.65,1.04-1.96,2.09-.38,1.33-.06,3.45.93,6.36Z"/>
          <path class="cls-2" d="M425.39,211.39c-.64-2.12-.95-3.89-.91-5.31.04-1.42.38-2.62,1.03-3.58.64-.97,1.62-1.64,2.91-2.04.96-.3,1.87-.36,2.71-.19.84.17,1.61.53,2.31,1.12.69.59,1.33,1.36,1.92,2.32.59.97,1.16,2.33,1.7,4.11.64,2.1.94,3.86.91,5.28-.04,1.42-.38,2.62-1.02,3.59-.64.97-1.62,1.64-2.93,2.04-1.73.53-3.27.32-4.64-.61-1.63-1.13-2.96-3.37-3.99-6.73h0ZM427.65,210.7c.89,2.94,1.84,4.79,2.82,5.55.99.76,1.98.99,2.99.68,1.01-.31,1.71-1.06,2.1-2.24.39-1.19.14-3.24-.76-6.17-.9-2.95-1.85-4.8-2.83-5.56-.98-.76-1.98-.98-3.01-.67-1.01.32-1.69.99-2.03,2.02-.42,1.32-.18,3.45.72,6.39Z"/>
          <path class="cls-2" d="M439.3,206.91c-.61-2.13-.88-3.9-.81-5.32.07-1.43.43-2.62,1.09-3.57.66-.95,1.64-1.62,2.95-1.99.97-.27,1.87-.32,2.72-.14.84.18,1.6.56,2.28,1.16.68.6,1.31,1.38,1.88,2.36.57.98,1.11,2.35,1.62,4.13.61,2.11.88,3.87.82,5.29-.06,1.43-.43,2.62-1.08,3.57-.66.95-1.65,1.62-2.97,2-1.73.5-3.27.27-4.62-.69-1.62-1.16-2.91-3.43-3.88-6.81h0ZM441.57,206.26c.85,2.95,1.76,4.82,2.73,5.6.97.78,1.96,1.03,2.97.74,1.02-.29,1.73-1.03,2.14-2.2.41-1.18.19-3.25-.65-6.19-.85-2.96-1.77-4.83-2.73-5.6-.97-.78-1.96-1.02-3-.72-1.02.29-1.7.96-2.06,1.99-.44,1.31-.24,3.45.6,6.4Z"/>
          <path class="cls-2" d="M453.48,202.71c-.57-2.14-.81-3.92-.72-5.34.08-1.42.47-2.6,1.15-3.54.68-.94,1.67-1.59,2.99-1.94.97-.26,1.87-.29,2.72-.1.83.19,1.58.59,2.26,1.2.67.61,1.29,1.41,1.84,2.39.56.98,1.07,2.37,1.56,4.16.57,2.12.81,3.89.72,5.31-.09,1.42-.47,2.6-1.15,3.54-.68.94-1.67,1.59-3,1.95-1.74.47-3.27.21-4.61-.77-1.59-1.18-2.84-3.48-3.75-6.87h0ZM455.76,202.09c.8,2.97,1.68,4.85,2.63,5.65.96.8,1.94,1.06,2.96.79,1.02-.28,1.74-1,2.17-2.17.43-1.17.25-3.24-.54-6.2-.8-2.97-1.68-4.86-2.63-5.65-.96-.79-1.95-1.05-2.99-.77-1.02.27-1.72.92-2.1,1.95-.46,1.3-.31,3.44.49,6.41Z"/>
          <path class="cls-2" d="M467.66,198.76c-.53-2.15-.75-3.93-.63-5.35.12-1.42.52-2.59,1.22-3.52.69-.93,1.7-1.56,3.02-1.89.97-.24,1.88-.25,2.71-.05.84.21,1.58.62,2.25,1.24.66.62,1.26,1.43,1.8,2.42.54.99,1.03,2.39,1.48,4.19.53,2.13.74,3.9.63,5.32-.11,1.42-.51,2.59-1.21,3.52-.7.93-1.7,1.56-3.03,1.89-1.75.44-3.28.15-4.59-.85-1.57-1.21-2.79-3.53-3.64-6.94h0ZM469.95,198.19c.74,2.98,1.59,4.87,2.53,5.69.94.81,1.93,1.09,2.95.84,1.03-.26,1.76-.97,2.21-2.14.46-1.16.31-3.23-.43-6.2-.74-2.99-1.59-4.89-2.53-5.7-.94-.81-1.94-1.08-2.98-.83-1.02.26-1.73.9-2.13,1.92-.49,1.29-.37,3.44.38,6.42Z"/>
          <path class="cls-2" d="M492.35,202.39l-2.24.52-3.29-14.27c-.41.64-1,1.31-1.76,2.03-.76.71-1.46,1.28-2.09,1.7l-.5-2.16c1.12-.89,2.04-1.85,2.79-2.9.74-1.05,1.22-2.02,1.43-2.9l1.44-.33,4.23,18.31Z"/>
          <path class="cls-2" d="M504.76,199.59l-2.25.43-2.79-14.36c-.45.62-1.06,1.28-1.83,1.96-.79.69-1.5,1.23-2.15,1.63l-.42-2.18c1.14-.84,2.11-1.77,2.89-2.8.78-1.03,1.29-1.97,1.53-2.85l1.45-.28,3.58,18.45Z"/>
          <path class="cls-2" d="M508.94,189.29c-.38-2.18-.47-3.98-.25-5.39.21-1.4.7-2.55,1.46-3.43.75-.88,1.8-1.43,3.14-1.67.99-.17,1.89-.12,2.71.14.82.26,1.53.73,2.16,1.39.61.67,1.16,1.52,1.62,2.54.47,1.03.86,2.45,1.18,4.28.39,2.16.46,3.95.26,5.35-.21,1.41-.7,2.55-1.46,3.43-.75.88-1.8,1.44-3.15,1.68-1.77.31-3.28-.08-4.52-1.18-1.49-1.31-2.54-3.71-3.15-7.17h0ZM511.27,188.89c.53,3.02,1.24,4.97,2.13,5.85.88.88,1.84,1.22,2.88,1.04,1.05-.18,1.83-.84,2.36-1.98.53-1.13.53-3.2,0-6.22-.54-3.04-1.24-4.99-2.13-5.86-.89-.87-1.85-1.22-2.9-1.04-1.05.19-1.8.78-2.26,1.77-.59,1.26-.6,3.4-.07,6.43Z"/>
          <path class="cls-2" d="M523.54,186.66c-.31-2.19-.33-3.99-.07-5.38.26-1.4.79-2.53,1.58-3.37.79-.85,1.85-1.37,3.2-1.57,1-.14,1.9-.06,2.7.24.81.29,1.5.79,2.1,1.47.59.68,1.1,1.55,1.54,2.6.43,1.04.77,2.48,1.03,4.32.31,2.17.33,3.96.07,5.36-.26,1.4-.79,2.52-1.57,3.38-.79.86-1.86,1.38-3.22,1.56-1.78.25-3.27-.19-4.47-1.32-1.44-1.37-2.41-3.81-2.89-7.28h0ZM525.88,186.33c.42,3.05,1.07,5.01,1.92,5.93.86.91,1.8,1.29,2.85,1.14,1.04-.15,1.85-.78,2.42-1.89.57-1.11.64-3.19.22-6.22-.42-3.05-1.07-5.03-1.92-5.93-.86-.91-1.8-1.28-2.87-1.13-1.05.15-1.82.71-2.32,1.68-.62,1.24-.73,3.38-.3,6.42Z"/>
          <path class="cls-2" d="M547.7,192.41l-2.28.28-1.78-14.53c-.49.59-1.14,1.21-1.97,1.83-.83.63-1.58,1.13-2.26,1.48l-.27-2.2c1.21-.76,2.23-1.62,3.08-2.59.85-.97,1.43-1.88,1.73-2.73l1.46-.17,2.29,18.65Z"/>
          <path class="cls-1" d="M67.43,548.97l-1.81,1.41-9.01-11.54c-.11.76-.36,1.62-.74,2.59-.39.97-.77,1.78-1.18,2.42l-1.36-1.75c.64-1.27,1.08-2.54,1.31-3.8.22-1.27.25-2.35.07-3.24l1.17-.91,11.57,14.81Z"/>
          <path class="cls-1" d="M66.05,538.05c-1.42-1.7-2.39-3.21-2.91-4.54-.52-1.33-.67-2.56-.45-3.7.22-1.14.85-2.14,1.89-3.02.77-.64,1.57-1.05,2.42-1.23.84-.18,1.69-.14,2.56.13.86.26,1.76.73,2.67,1.39.92.66,1.97,1.69,3.17,3.12,1.41,1.68,2.38,3.18,2.9,4.5.52,1.33.67,2.56.46,3.7-.21,1.14-.84,2.15-1.9,3.03-1.39,1.16-2.89,1.58-4.5,1.24-1.95-.4-4.05-1.94-6.31-4.63h0ZM67.86,536.53c1.97,2.34,3.56,3.68,4.77,4,1.2.32,2.21.14,3.02-.54.81-.68,1.15-1.64,1.05-2.89-.1-1.25-1.14-3.04-3.11-5.39-1.97-2.36-3.57-3.7-4.77-4.01-1.2-.32-2.21-.13-3.03.56-.81.68-1.17,1.56-1.08,2.65.13,1.37,1.18,3.25,3.15,5.61Z"/>
          <path class="cls-1" d="M89.64,530.01l-1.73,1.5-9.6-11.04c-.07.76-.27,1.63-.61,2.61-.33.99-.68,1.82-1.05,2.49l-1.46-1.68c.58-1.29.94-2.58,1.11-3.86.16-1.28.13-2.35-.1-3.23l1.12-.97,12.32,14.18Z"/>
          <path class="cls-1" d="M99,521.52l-1.7,1.54-9.8-10.88c-.06.76-.24,1.64-.56,2.63-.32,1-.65,1.83-1.01,2.5l-1.49-1.65c.55-1.31.89-2.6,1.04-3.89.14-1.28.09-2.36-.15-3.23l1.09-.99,12.57,13.97Z"/>
          <path class="cls-1" d="M108.08,512.76l-1.68,1.57-9.98-10.71c-.04.76-.22,1.64-.51,2.64-.3,1-.62,1.84-.96,2.52l-1.51-1.62c.53-1.32.85-2.62.97-3.91.11-1.29.05-2.36-.21-3.23l1.07-1,12.82,13.74Z"/>
          <path class="cls-1" d="M105.83,502.18c-1.56-1.57-2.66-2.99-3.3-4.27-.64-1.28-.89-2.49-.77-3.65.11-1.15.66-2.21,1.62-3.17.71-.71,1.48-1.19,2.3-1.44.82-.26,1.67-.28,2.56-.1.89.19,1.82.57,2.79,1.15.97.57,2.11,1.51,3.42,2.83,1.55,1.55,2.65,2.96,3.28,4.23.64,1.28.89,2.49.78,3.65-.11,1.16-.66,2.22-1.63,3.19-1.27,1.27-2.73,1.82-4.38,1.63-1.97-.22-4.21-1.59-6.69-4.06h0ZM107.49,500.51c2.17,2.17,3.87,3.36,5.1,3.57,1.22.21,2.21-.06,2.96-.8.75-.75,1.01-1.74.8-2.97-.22-1.23-1.4-2.93-3.57-5.1s-3.88-3.37-5.1-3.57c-1.23-.21-2.22.06-2.98.82-.75.75-1.02,1.66-.84,2.74.24,1.36,1.46,3.13,3.62,5.31Z"/>
          <path class="cls-1" d="M128.82,492.39l-1.62,1.62-10.35-10.35c-.02.76-.16,1.65-.42,2.66-.27,1.01-.56,1.86-.87,2.55l-1.57-1.57c.48-1.34.76-2.65.83-3.94.07-1.29-.03-2.36-.32-3.21l1.05-1.04,13.28,13.29Z"/>
          <path class="cls-1" d="M126.15,481.63c-1.59-1.54-2.72-2.94-3.37-4.2-.66-1.27-.93-2.47-.83-3.63.09-1.15.61-2.22,1.55-3.19.7-.73,1.47-1.22,2.28-1.48.82-.27,1.67-.3,2.56-.14.89.18,1.83.54,2.81,1.1.98.55,2.14,1.48,3.47,2.77,1.58,1.53,2.7,2.91,3.36,4.17.66,1.26.94,2.47.85,3.63-.1,1.16-.62,2.23-1.57,3.22-1.26,1.3-2.7,1.86-4.35,1.71-1.97-.19-4.23-1.51-6.75-3.95h0ZM127.79,479.93c2.21,2.14,3.94,3.3,5.16,3.48,1.23.19,2.21-.09,2.94-.85.74-.76.98-1.76.74-2.98-.23-1.23-1.45-2.91-3.65-5.03-2.22-2.14-3.94-3.31-5.16-3.49-1.23-.19-2.21.1-2.96.87-.74.77-.99,1.68-.79,2.76.27,1.36,1.51,3.11,3.72,5.24Z"/>
          <path class="cls-1" d="M136.12,471.27c-1.62-1.51-2.76-2.89-3.44-4.15-.68-1.26-.98-2.46-.9-3.62.07-1.15.58-2.23,1.5-3.22.69-.74,1.44-1.25,2.25-1.52.81-.28,1.67-.34,2.56-.18.89.15,1.84.51,2.82,1.05,1,.54,2.17,1.44,3.52,2.71,1.61,1.5,2.75,2.87,3.43,4.12.68,1.26.98,2.46.9,3.61-.08,1.16-.57,2.24-1.51,3.24-1.23,1.33-2.67,1.92-4.31,1.78-1.98-.15-4.26-1.43-6.83-3.83h0ZM137.73,469.55c2.25,2.09,3.99,3.22,5.23,3.39,1.23.17,2.21-.13,2.93-.9.72-.78.95-1.77.69-2.99-.26-1.22-1.5-2.88-3.74-4.97-2.26-2.1-4-3.23-5.23-3.4-1.23-.17-2.21.14-2.94.92-.72.78-.97,1.7-.74,2.77.29,1.35,1.56,3.08,3.81,5.18Z"/>
          <path class="cls-1" d="M153.27,452.71c-1.62-1.5-2.77-2.89-3.44-4.14-.68-1.25-.97-2.46-.9-3.62.08-1.15.58-2.23,1.51-3.22.69-.74,1.43-1.24,2.25-1.52.81-.28,1.66-.34,2.55-.19.9.16,1.84.51,2.83,1.05,1,.54,2.17,1.44,3.53,2.71,1.6,1.5,2.75,2.87,3.42,4.12.68,1.25.98,2.46.91,3.62-.07,1.16-.58,2.23-1.51,3.24-1.23,1.32-2.67,1.92-4.31,1.78-1.98-.16-4.26-1.44-6.83-3.84h0ZM154.89,450.98c2.25,2.1,3.99,3.22,5.22,3.4,1.23.16,2.21-.14,2.93-.91.73-.77.95-1.77.69-3-.25-1.22-1.5-2.87-3.74-4.96-2.25-2.1-4-3.24-5.23-3.4-1.23-.17-2.21.14-2.94.93-.72.77-.96,1.69-.74,2.76.29,1.35,1.56,3.08,3.81,5.17Z"/>
          <path class="cls-1" d="M162.99,442.1c-1.65-1.47-2.82-2.84-3.51-4.08-.7-1.24-1.02-2.44-.96-3.6.06-1.16.54-2.24,1.45-3.25.67-.75,1.41-1.27,2.22-1.56.81-.3,1.65-.37,2.55-.23.89.14,1.85.48,2.85,1,1,.52,2.19,1.41,3.57,2.65,1.63,1.47,2.79,2.82,3.49,4.06.7,1.24,1.02,2.44.97,3.6-.06,1.16-.54,2.25-1.46,3.26-1.2,1.35-2.63,1.97-4.28,1.86-1.98-.12-4.29-1.36-6.89-3.71h0ZM164.56,440.35c2.29,2.05,4.05,3.15,5.29,3.3,1.23.14,2.21-.17,2.91-.96.71-.79.92-1.79.64-3-.28-1.22-1.55-2.86-3.83-4.9-2.29-2.06-4.05-3.17-5.28-3.31-1.24-.14-2.21.19-2.93.98-.71.79-.94,1.72-.69,2.78.32,1.34,1.61,3.06,3.9,5.11Z"/>
          <path class="cls-1" d="M179.49,423.12c-1.66-1.45-2.86-2.78-3.57-4.02-.73-1.22-1.07-2.42-1.03-3.58.04-1.16.5-2.25,1.39-3.27.66-.76,1.39-1.29,2.19-1.6.8-.31,1.65-.4,2.56-.27.89.13,1.85.45,2.86.96,1.01.5,2.21,1.36,3.62,2.58,1.65,1.44,2.84,2.78,3.56,4,.73,1.22,1.07,2.42,1.04,3.58-.03,1.16-.5,2.26-1.4,3.3-1.18,1.36-2.6,2-4.25,1.93-1.98-.09-4.3-1.28-6.96-3.6h0ZM181.05,421.34c2.32,2.01,4.1,3.08,5.34,3.21,1.24.12,2.2-.21,2.89-1,.69-.8.89-1.8.59-3.01-.3-1.21-1.6-2.83-3.91-4.83-2.32-2.02-4.11-3.09-5.34-3.22-1.24-.12-2.21.22-2.91,1.03-.69.8-.91,1.73-.65,2.79.34,1.34,1.67,3.02,3.99,5.04Z"/>
          <path class="cls-1" d="M201.71,411.66l-1.51,1.73-11.05-9.6c.03.76-.04,1.65-.23,2.68-.19,1.02-.43,1.9-.7,2.6l-1.67-1.46c.38-1.36.57-2.69.55-3.98-.02-1.29-.2-2.35-.55-3.18l.97-1.12,14.19,12.33Z"/>
          <path class="cls-1" d="M209.87,402l-1.51,1.73-11.05-9.6c.04.76-.04,1.66-.23,2.68-.19,1.02-.42,1.89-.69,2.6l-1.68-1.46c.39-1.37.57-2.69.56-3.99-.02-1.29-.2-2.35-.55-3.19l.97-1.11,14.18,12.33Z"/>
          <path class="cls-1" d="M206.66,391.38c-1.64-1.49-2.82-2.84-3.52-4.09-.7-1.24-1.02-2.44-.96-3.6.05-1.16.54-2.24,1.44-3.25.68-.75,1.42-1.27,2.23-1.56.81-.29,1.66-.37,2.56-.22.89.14,1.84.48,2.84,1,1,.52,2.19,1.41,3.57,2.64,1.63,1.47,2.8,2.82,3.5,4.06.7,1.24,1.02,2.44.97,3.6-.06,1.15-.54,2.24-1.46,3.26-1.21,1.34-2.63,1.97-4.28,1.86-1.98-.12-4.29-1.36-6.89-3.71h0ZM208.24,389.63c2.28,2.05,4.05,3.15,5.29,3.3,1.23.14,2.2-.17,2.91-.96.71-.79.92-1.79.64-3.01-.28-1.22-1.56-2.85-3.83-4.9-2.29-2.06-4.06-3.15-5.29-3.3-1.24-.15-2.21.18-2.93.97-.71.79-.94,1.71-.7,2.78.32,1.35,1.62,3.06,3.9,5.12Z"/>
          <path class="cls-1" d="M216.48,379.93c-1.59-1.54-2.72-2.94-3.37-4.2-.65-1.27-.93-2.49-.84-3.64.09-1.15.62-2.22,1.56-3.2.7-.73,1.46-1.21,2.28-1.48.82-.27,1.67-.31,2.57-.14.89.18,1.82.54,2.81,1.1.98.56,2.14,1.48,3.47,2.77,1.58,1.52,2.7,2.92,3.36,4.18.66,1.27.94,2.47.84,3.64-.1,1.15-.62,2.22-1.57,3.21-1.25,1.3-2.69,1.87-4.34,1.7-1.98-.19-4.24-1.51-6.76-3.95h0ZM218.11,378.23c2.21,2.13,3.94,3.29,5.17,3.49,1.23.18,2.21-.1,2.94-.86.74-.76.98-1.75.75-2.98-.24-1.23-1.46-2.91-3.65-5.04-2.22-2.14-3.94-3.3-5.17-3.49-1.23-.19-2.22.11-2.96.88-.74.75-1,1.67-.8,2.75.27,1.36,1.51,3.11,3.72,5.24Z"/>
          <path class="cls-1" d="M239.22,369.66l-1.59,1.65-10.53-10.17c0,.77-.13,1.65-.37,2.67-.25,1.02-.53,1.87-.84,2.57l-1.59-1.54c.45-1.34.71-2.66.76-3.95.04-1.29-.08-2.36-.38-3.21l1.02-1.07,13.52,13.06Z"/>
          <path class="cls-1" d="M237.05,358.98c-1.51-1.62-2.56-3.08-3.14-4.37-.59-1.3-.81-2.52-.65-3.68.16-1.14.74-2.18,1.73-3.11.74-.69,1.52-1.14,2.35-1.36.83-.22,1.68-.22,2.57,0,.88.22,1.79.64,2.75,1.25.95.61,2.06,1.59,3.32,2.95,1.5,1.6,2.54,3.05,3.13,4.35.59,1.3.8,2.52.65,3.67-.16,1.15-.73,2.19-1.73,3.13-1.32,1.23-2.79,1.73-4.43,1.48-1.96-.3-4.14-1.73-6.54-4.3h0ZM238.78,357.37c2.1,2.24,3.76,3.49,4.98,3.74,1.22.25,2.21.02,2.98-.69.78-.72,1.07-1.7.9-2.94-.17-1.24-1.3-2.98-3.39-5.22-2.1-2.25-3.76-3.5-4.98-3.76-1.22-.25-2.21,0-3,.72-.78.72-1.08,1.62-.94,2.7.2,1.37,1.35,3.19,3.44,5.44Z"/>
          <path class="cls-1" d="M260.52,349.88l-1.74,1.51-9.6-11.05c-.07.76-.27,1.63-.6,2.62-.34.99-.69,1.82-1.05,2.49l-1.46-1.67c.58-1.3.94-2.59,1.11-3.87.16-1.28.13-2.36-.1-3.23l1.11-.97,12.33,14.18Z"/>
          <path class="cls-1" d="M269.99,341.78l-1.73,1.51-9.6-11.05c-.07.75-.27,1.63-.61,2.62-.34.99-.68,1.81-1.05,2.48l-1.45-1.67c.57-1.3.94-2.59,1.1-3.87.16-1.28.13-2.36-.1-3.23l1.12-.97,12.32,14.18Z"/>
          <path class="cls-1" d="M279.77,333.81l-1.81,1.41-9.01-11.53c-.11.75-.35,1.62-.74,2.58-.38.97-.78,1.79-1.18,2.43l-1.36-1.75c.64-1.27,1.07-2.54,1.3-3.81.22-1.27.25-2.35.06-3.23l1.16-.91,11.57,14.8Z"/>
          <path class="cls-1" d="M278.95,322.81c-1.3-1.79-2.16-3.37-2.58-4.72-.42-1.36-.49-2.6-.19-3.72.3-1.12.99-2.08,2.1-2.87.81-.59,1.65-.95,2.5-1.07.85-.12,1.7-.01,2.55.31.85.33,1.71.85,2.57,1.57.87.72,1.85,1.83,2.94,3.33,1.29,1.78,2.15,3.34,2.57,4.7.43,1.36.5,2.6.21,3.72-.29,1.12-1,2.08-2.11,2.89-1.46,1.06-2.98,1.37-4.58.92-1.91-.53-3.91-2.22-5.97-5.06h0ZM280.86,321.42c1.81,2.48,3.3,3.92,4.48,4.33,1.18.4,2.19.29,3.05-.33.85-.62,1.27-1.56,1.25-2.81-.02-1.25-.93-3.12-2.72-5.59-1.81-2.49-3.31-3.93-4.49-4.33-1.18-.4-2.2-.28-3.06.35-.86.62-1.27,1.48-1.26,2.57.03,1.39.95,3.32,2.75,5.81Z"/>
          <path class="cls-1" d="M303.24,316.85l-1.9,1.28-8.19-12.14c-.16.75-.47,1.59-.92,2.53-.45.94-.9,1.72-1.34,2.34l-1.24-1.85c.73-1.22,1.25-2.45,1.57-3.7.32-1.26.42-2.32.29-3.22l1.22-.83,10.51,15.59Z"/>
          <path class="cls-1" d="M313.75,309.52l-1.9,1.28-8.18-12.14c-.16.75-.47,1.59-.92,2.53-.45.94-.9,1.72-1.34,2.34l-1.25-1.84c.73-1.22,1.25-2.46,1.57-3.71.32-1.25.41-2.32.29-3.21l1.22-.82,10.51,15.58Z"/>
          <path class="cls-1" d="M324.44,303.01l-1.95,1.21-7.76-12.41c-.19.74-.53,1.57-1,2.49-.48.92-.96,1.69-1.43,2.29l-1.17-1.88c.77-1.2,1.33-2.42,1.69-3.65.36-1.24.5-2.31.4-3.21l1.26-.79,9.95,15.94Z"/>
          <path class="cls-1" d="M335.13,296.5l-1.99,1.15-7.32-12.68c-.21.73-.57,1.55-1.09,2.46-.52.91-1.02,1.65-1.51,2.24l-1.11-1.92c.81-1.17,1.42-2.36,1.82-3.59.4-1.22.57-2.29.52-3.19l1.28-.74,9.39,16.27Z"/>
          <path class="cls-1" d="M335.77,285.13c-1.04-1.95-1.67-3.64-1.9-5.03-.24-1.41-.12-2.65.32-3.72.45-1.07,1.27-1.92,2.47-2.56.89-.47,1.76-.7,2.62-.7.86,0,1.68.22,2.47.66.8.44,1.57,1.08,2.33,1.92.76.83,1.58,2.06,2.45,3.7,1.03,1.94,1.66,3.61,1.89,5.01.23,1.4.13,2.64-.32,3.71-.45,1.07-1.27,1.93-2.49,2.57-1.59.85-3.15.95-4.66.29-1.82-.79-3.55-2.75-5.21-5.85h0ZM337.85,284.03c1.44,2.71,2.72,4.35,3.84,4.91,1.12.56,2.13.59,3.06.1s1.47-1.37,1.63-2.6c.16-1.24-.48-3.21-1.92-5.92-1.45-2.72-2.73-4.36-3.84-4.92-1.11-.56-2.14-.58-3.08-.08-.94.5-1.47,1.29-1.61,2.38-.16,1.38.48,3.42,1.92,6.14Z"/>
          <path class="cls-1" d="M360.61,282.46l-2.06,1.01-6.41-13.16c-.27.71-.69,1.51-1.26,2.37-.59.87-1.14,1.58-1.66,2.13l-.97-1.99c.89-1.1,1.58-2.26,2.07-3.45.48-1.2.73-2.24.74-3.15l1.33-.65,8.24,16.89Z"/>
          <path class="cls-1" d="M361.75,271.43c-.97-1.99-1.54-3.69-1.73-5.1-.19-1.41-.03-2.65.46-3.7.48-1.05,1.34-1.87,2.56-2.47.9-.44,1.78-.64,2.65-.61.86.03,1.67.28,2.45.74.77.47,1.53,1.14,2.27,2,.73.86,1.5,2.12,2.31,3.79.97,1.97,1.54,3.66,1.72,5.07.19,1.41.04,2.64-.45,3.7-.49,1.05-1.34,1.88-2.58,2.48-1.62.79-3.18.83-4.67.12-1.79-.85-3.46-2.87-5-6.02h0ZM363.88,270.39c1.35,2.76,2.56,4.44,3.66,5.04,1.09.6,2.11.66,3.06.2.96-.46,1.52-1.31,1.72-2.54.2-1.24-.37-3.23-1.71-5.99-1.35-2.77-2.57-4.45-3.67-5.05-1.09-.59-2.11-.66-3.07-.19-.96.46-1.51,1.24-1.69,2.31-.22,1.37.35,3.44,1.7,6.2Z"/>
          <path class="cls-1" d="M386.62,269.55l-2.08.97-6.19-13.27c-.27.71-.71,1.5-1.31,2.34-.59.87-1.16,1.56-1.69,2.11l-.93-2.01c.91-1.09,1.62-2.23,2.13-3.42.5-1.18.77-2.23.79-3.14l1.34-.62,7.94,17.03Z"/>
          <path class="cls-1" d="M398.32,264.63l-2.12.9-5.72-13.48c-.3.7-.76,1.47-1.38,2.31-.62.84-1.21,1.52-1.77,2.04l-.86-2.05c.94-1.05,1.69-2.16,2.24-3.33.55-1.17.86-2.21.91-3.11l1.36-.57,7.34,17.3Z"/>
          <path class="cls-1" d="M410,259.71l-2.15.82-5.24-13.66c-.33.69-.81,1.44-1.46,2.25-.66.82-1.27,1.47-1.84,1.98l-.79-2.07c.98-1.03,1.77-2.11,2.36-3.26.59-1.15.92-2.17,1.01-3.06l1.38-.53,6.73,17.54Z"/>
          <path class="cls-1" d="M412.26,248.67c-.76-2.08-1.15-3.83-1.18-5.25-.04-1.43.24-2.63.84-3.63.59-.99,1.53-1.72,2.81-2.19.95-.35,1.84-.46,2.7-.33.85.12,1.64.45,2.36,1,.73.54,1.41,1.28,2.04,2.22.64.92,1.27,2.26,1.91,4.01.75,2.06,1.14,3.81,1.18,5.22.04,1.43-.25,2.64-.83,3.63-.59,1-1.53,1.73-2.83,2.2-1.69.62-3.24.49-4.66-.37-1.69-1.05-3.14-3.22-4.34-6.52h0ZM414.48,247.86c1.05,2.89,2.09,4.68,3.12,5.39,1.02.71,2.03.89,3.02.53.99-.36,1.64-1.15,1.98-2.35.32-1.21-.03-3.24-1.08-6.13-1.05-2.89-2.09-4.69-3.11-5.39-1.03-.71-2.03-.89-3.04-.52-.99.36-1.63,1.07-1.92,2.13-.35,1.34,0,3.46,1.04,6.34Z"/>
          <path class="cls-1" d="M437.1,249.31l-2.17.75-4.77-13.84c-.35.68-.86,1.41-1.54,2.2-.69.79-1.32,1.43-1.91,1.91l-.72-2.1c1.02-.99,1.84-2.04,2.47-3.17.62-1.13,1-2.14,1.11-3.03l1.4-.48,6.12,17.77Z"/>
          <path class="cls-1" d="M439.99,238.38c-.64-2.12-.95-3.88-.91-5.31.04-1.43.38-2.61,1.03-3.59.65-.96,1.61-1.64,2.92-2.03.96-.29,1.86-.36,2.71-.19.84.16,1.61.54,2.31,1.12.7.58,1.33,1.36,1.92,2.32.59.96,1.15,2.33,1.7,4.11.64,2.1.94,3.86.9,5.28s-.37,2.62-1.02,3.58c-.64.97-1.62,1.65-2.93,2.06-1.73.53-3.26.32-4.63-.61-1.64-1.13-2.97-3.38-4-6.73h0ZM442.25,237.69c.9,2.94,1.84,4.79,2.83,5.55.98.76,1.97.99,2.99.68,1.01-.31,1.71-1.06,2.1-2.24.39-1.19.14-3.25-.76-6.18-.91-2.95-1.85-4.8-2.83-5.56-.99-.76-1.99-.98-3.02-.66-1.01.31-1.68.98-2.02,2.02-.42,1.32-.19,3.46.71,6.39Z"/>
          <path class="cls-1" d="M453.91,233.9c-.61-2.13-.89-3.9-.82-5.33.06-1.42.43-2.6,1.1-3.56.65-.95,1.64-1.61,2.95-1.99.96-.27,1.87-.32,2.71-.15.84.18,1.6.57,2.29,1.17.68.6,1.31,1.38,1.88,2.36.58.97,1.12,2.35,1.63,4.13.61,2.11.88,3.88.82,5.3-.07,1.42-.43,2.61-1.09,3.57-.66.95-1.65,1.62-2.97,1.99-1.73.5-3.27.27-4.62-.69-1.61-1.16-2.91-3.43-3.87-6.8h0ZM456.18,233.25c.84,2.95,1.75,4.82,2.73,5.6.97.78,1.96,1.02,2.97.74,1.02-.29,1.73-1.03,2.14-2.21.4-1.18.19-3.24-.65-6.19-.85-2.96-1.76-4.83-2.73-5.61-.97-.77-1.97-1.01-3-.72-1.02.29-1.7.95-2.07,1.98-.44,1.31-.24,3.45.61,6.4Z"/>
          <path class="cls-1" d="M467.82,229.7c-.57-2.14-.81-3.92-.72-5.34.09-1.42.48-2.6,1.16-3.54.68-.94,1.67-1.58,2.98-1.94.97-.26,1.88-.29,2.72-.1.83.19,1.59.6,2.26,1.21.68.61,1.3,1.41,1.85,2.39.56.98,1.07,2.37,1.55,4.16.58,2.12.81,3.89.73,5.31-.09,1.41-.47,2.6-1.14,3.54-.68.94-1.68,1.59-3.01,1.95-1.74.46-3.28.2-4.61-.78-1.59-1.18-2.85-3.48-3.76-6.87h0ZM470.11,229.08c.79,2.97,1.67,4.85,2.63,5.65.96.8,1.94,1.05,2.96.78,1.02-.27,1.74-.99,2.18-2.17.43-1.17.24-3.24-.55-6.2-.8-2.97-1.67-4.86-2.63-5.65-.95-.79-1.95-1.05-2.98-.77-1.02.27-1.72.91-2.1,1.95-.47,1.3-.3,3.44.49,6.4Z"/>
          <path class="cls-1" d="M482,225.75c-.54-2.15-.75-3.93-.63-5.35.11-1.42.52-2.59,1.21-3.52.7-.93,1.7-1.55,3.02-1.88.98-.25,1.88-.26,2.72-.05.83.2,1.58.62,2.24,1.24.66.62,1.27,1.43,1.8,2.42.54.99,1.03,2.39,1.48,4.19.53,2.13.73,3.9.63,5.32-.11,1.42-.52,2.6-1.21,3.53-.7.93-1.7,1.56-3.03,1.89-1.75.44-3.28.15-4.59-.85-1.57-1.21-2.78-3.53-3.63-6.94h0ZM484.29,225.18c.75,2.98,1.59,4.87,2.53,5.69.94.81,1.92,1.09,2.94.84,1.03-.25,1.77-.97,2.22-2.13.45-1.17.31-3.24-.43-6.21-.74-2.99-1.59-4.89-2.53-5.7-.94-.81-1.93-1.09-2.98-.83-1.02.26-1.73.9-2.13,1.92-.49,1.29-.37,3.44.38,6.42Z"/>
          <path class="cls-1" d="M496.44,222.08c-.5-2.16-.68-3.95-.53-5.36.14-1.42.56-2.59,1.28-3.5.71-.91,1.72-1.53,3.05-1.83.99-.23,1.89-.23,2.72,0,.83.22,1.56.65,2.22,1.28.65.63,1.24,1.45,1.75,2.45.52,1,.99,2.41,1.41,4.21.5,2.15.67,3.92.54,5.33-.14,1.42-.56,2.59-1.27,3.5-.71.92-1.73,1.53-3.07,1.84-1.76.4-3.28.09-4.58-.94-1.55-1.24-2.72-3.57-3.52-6.99h0ZM498.74,221.54c.69,2.99,1.51,4.9,2.44,5.74.93.83,1.9,1.12,2.93.89,1.03-.24,1.78-.94,2.25-2.09.47-1.16.37-3.23-.32-6.22-.69-3-1.51-4.92-2.43-5.74-.93-.82-1.91-1.12-2.96-.87-1.03.24-1.75.86-2.17,1.87-.51,1.28-.42,3.43.27,6.42Z"/>
          <path class="cls-1" d="M521,225.89l-2.24.47-3.04-14.32c-.43.63-1.03,1.29-1.8,2-.77.7-1.48,1.26-2.12,1.66l-.46-2.16c1.13-.86,2.07-1.81,2.84-2.85.76-1.04,1.26-2,1.48-2.87l1.44-.31,3.91,18.38Z"/>
          <path class="cls-1" d="M533.4,223.6l-2.26.4-2.54-14.42c-.46.61-1.07,1.26-1.87,1.93-.8.68-1.52,1.21-2.18,1.59l-.39-2.19c1.16-.82,2.14-1.73,2.95-2.75.79-1.02,1.32-1.95,1.57-2.82l1.46-.26,3.26,18.51Z"/>
          <path class="cls-1" d="M537.72,213.14c-.34-2.19-.4-3.99-.16-5.39.23-1.41.74-2.54,1.51-3.4.77-.86,1.83-1.4,3.17-1.62,1-.16,1.9-.09,2.71.19.81.27,1.52.76,2.13,1.43.6.67,1.13,1.53,1.58,2.57.45,1.04.82,2.47,1.11,4.3.35,2.16.39,3.95.17,5.35-.24,1.4-.74,2.54-1.51,3.41-.77.87-1.84,1.41-3.19,1.62-1.78.28-3.28-.13-4.5-1.25-1.46-1.34-2.47-3.76-3.02-7.22h0ZM540.05,212.77c.48,3.03,1.16,5,2.03,5.9.87.88,1.82,1.25,2.86,1.09,1.04-.17,1.84-.81,2.39-1.93.55-1.12.59-3.19.11-6.22-.48-3.04-1.16-5.01-2.03-5.89-.87-.89-1.83-1.25-2.89-1.08-1.04.17-1.81.75-2.29,1.72-.6,1.24-.66,3.39-.19,6.42Z"/>
          <path class="cls-4" d="M118.52,546.15l-1.71,1.54-9.8-10.88c-.06.76-.24,1.64-.56,2.63-.32.99-.66,1.83-1.01,2.51l-1.48-1.65c.55-1.32.9-2.61,1.03-3.89.14-1.28.09-2.35-.16-3.22l1.1-.99,12.58,13.97Z"/>
          <path class="cls-4" d="M116.27,535.6c-1.54-1.59-2.62-3.03-3.22-4.32-.61-1.29-.84-2.51-.71-3.66.14-1.15.69-2.19,1.67-3.14.72-.7,1.5-1.17,2.33-1.4.82-.23,1.68-.25,2.57-.04.88.21,1.81.61,2.77,1.2.96.59,2.09,1.55,3.37,2.89,1.53,1.58,2.59,3.01,3.21,4.29.61,1.28.85,2.5.71,3.66-.13,1.15-.69,2.2-1.68,3.16-1.3,1.25-2.76,1.77-4.4,1.56-1.97-.27-4.18-1.66-6.61-4.19h0ZM117.97,533.97c2.13,2.21,3.81,3.42,5.04,3.66,1.22.23,2.21-.01,2.97-.75.76-.74,1.04-1.72.85-2.96-.19-1.23-1.35-2.95-3.48-5.16-2.14-2.21-3.82-3.43-5.04-3.66-1.23-.24-2.22.02-2.99.77-.76.75-1.05,1.65-.89,2.72.22,1.37,1.4,3.16,3.53,5.37Z"/>
          <path class="cls-4" d="M139.14,525.91l-1.62,1.62-10.35-10.35c-.02.76-.16,1.65-.42,2.65-.27,1.01-.56,1.86-.88,2.55l-1.57-1.57c.48-1.33.76-2.65.84-3.94.07-1.29-.04-2.37-.33-3.21l1.04-1.05,13.28,13.29Z"/>
          <path class="cls-4" d="M136.85,515.31c-1.56-1.57-2.66-2.98-3.29-4.26-.63-1.27-.89-2.49-.77-3.65.12-1.15.66-2.21,1.62-3.17.71-.71,1.48-1.19,2.3-1.44.82-.26,1.68-.29,2.56-.09.89.19,1.82.57,2.78,1.15.98.58,2.12,1.52,3.43,2.83,1.55,1.55,2.65,2.96,3.29,4.24.63,1.27.89,2.48.78,3.64-.11,1.15-.66,2.21-1.63,3.19-1.28,1.28-2.73,1.82-4.38,1.63-1.97-.22-4.2-1.59-6.69-4.07h0ZM138.53,513.64c2.17,2.18,3.87,3.36,5.1,3.58,1.22.21,2.21-.05,2.95-.8.75-.75,1.02-1.74.8-2.97-.21-1.23-1.4-2.93-3.57-5.1-2.18-2.18-3.88-3.37-5.1-3.58-1.22-.21-2.21.07-2.97.82-.75.75-1.03,1.66-.84,2.74.25,1.36,1.46,3.14,3.63,5.3Z"/>
          <path class="cls-4" d="M146.82,504.96c-1.59-1.54-2.71-2.94-3.37-4.2-.66-1.26-.93-2.48-.84-3.63.09-1.16.62-2.23,1.56-3.21.7-.72,1.46-1.21,2.28-1.47.82-.27,1.67-.32,2.56-.14.9.17,1.82.54,2.81,1.1.99.56,2.14,1.48,3.47,2.77,1.58,1.52,2.7,2.92,3.36,4.18.66,1.26.94,2.47.84,3.63-.09,1.16-.62,2.23-1.57,3.22-1.25,1.3-2.7,1.87-4.34,1.71-1.98-.19-4.23-1.51-6.76-3.95h0ZM148.47,503.26c2.21,2.13,3.93,3.29,5.16,3.48,1.23.19,2.21-.09,2.95-.85.74-.76.98-1.76.74-2.98-.24-1.23-1.46-2.91-3.65-5.04-2.21-2.14-3.94-3.3-5.17-3.48-1.22-.19-2.21.1-2.96.87-.73.76-.99,1.68-.79,2.75.27,1.36,1.51,3.1,3.72,5.24Z"/>
          <path class="cls-4" d="M156.8,494.6c-1.62-1.51-2.77-2.89-3.44-4.14-.68-1.25-.97-2.46-.9-3.62.08-1.15.58-2.23,1.51-3.22.69-.74,1.44-1.24,2.25-1.52.81-.28,1.65-.34,2.56-.18.89.16,1.84.51,2.82,1.05.99.53,2.17,1.44,3.52,2.7,1.6,1.5,2.75,2.88,3.42,4.12.68,1.25.98,2.46.91,3.61-.07,1.16-.58,2.24-1.51,3.24-1.23,1.32-2.67,1.91-4.31,1.79-1.98-.16-4.26-1.44-6.83-3.84h0ZM158.4,492.88c2.25,2.09,3.98,3.22,5.22,3.39,1.23.16,2.21-.13,2.93-.91.73-.77.95-1.77.7-2.99-.26-1.22-1.51-2.88-3.74-4.97-2.26-2.1-4-3.23-5.23-3.4-1.23-.17-2.21.14-2.94.93-.72.78-.97,1.7-.74,2.77.29,1.35,1.57,3.08,3.81,5.18Z"/>
          <path class="cls-4" d="M166.63,483.89c-1.62-1.51-2.76-2.89-3.44-4.15-.68-1.25-.97-2.46-.9-3.61.08-1.15.57-2.23,1.51-3.22.68-.74,1.43-1.24,2.25-1.52.81-.28,1.66-.34,2.56-.18.89.16,1.83.51,2.83,1.05.99.54,2.16,1.44,3.52,2.71,1.6,1.5,2.75,2.87,3.43,4.12.68,1.26.98,2.46.91,3.62-.07,1.16-.58,2.24-1.51,3.24-1.23,1.32-2.67,1.91-4.32,1.78-1.98-.16-4.26-1.44-6.83-3.83h0ZM168.24,482.16c2.24,2.09,3.99,3.23,5.22,3.39,1.23.17,2.21-.13,2.93-.9.72-.77.95-1.77.7-2.99-.26-1.22-1.5-2.88-3.75-4.97-2.25-2.11-4-3.24-5.23-3.4-1.23-.17-2.21.14-2.94.93-.72.77-.97,1.69-.74,2.77.29,1.35,1.56,3.08,3.81,5.17Z"/>
          <path class="cls-4" d="M183.66,465.17c-1.65-1.49-2.81-2.84-3.51-4.09-.7-1.24-1.02-2.44-.97-3.6.05-1.15.54-2.24,1.45-3.25.67-.74,1.41-1.27,2.22-1.56.81-.29,1.66-.37,2.56-.23.89.15,1.84.48,2.85,1.01,1,.52,2.18,1.41,3.56,2.64,1.64,1.47,2.8,2.83,3.5,4.06.7,1.25,1.02,2.44.97,3.6-.05,1.16-.54,2.25-1.46,3.27-1.21,1.34-2.63,1.96-4.28,1.86-1.98-.12-4.28-1.36-6.89-3.71h0ZM185.24,463.41c2.28,2.06,4.04,3.15,5.28,3.3,1.23.15,2.2-.17,2.91-.95.71-.79.92-1.79.64-3-.28-1.22-1.56-2.86-3.84-4.91-2.29-2.06-4.06-3.16-5.29-3.3-1.23-.14-2.21.18-2.93.98-.7.79-.94,1.71-.69,2.78.32,1.35,1.62,3.06,3.9,5.11Z"/>
          <path class="cls-4" d="M205.88,453.93l-1.54,1.71-10.88-9.79c.02.76-.07,1.66-.28,2.68-.21,1.02-.45,1.88-.74,2.58l-1.65-1.48c.41-1.36.62-2.69.62-3.98s-.16-2.36-.49-3.2l.98-1.09,13.97,12.57Z"/>
          <path class="cls-4" d="M213.91,444.41l-1.51,1.73-11.05-9.6c.03.76-.04,1.65-.23,2.67-.19,1.03-.42,1.9-.7,2.61l-1.67-1.46c.38-1.37.57-2.7.55-3.99-.02-1.29-.2-2.35-.55-3.19l.97-1.12,14.18,12.33Z"/>
          <path class="cls-4" d="M210.84,433.9c-1.67-1.45-2.87-2.79-3.59-4.02-.72-1.23-1.06-2.42-1.02-3.58.04-1.16.5-2.25,1.39-3.28.66-.76,1.39-1.29,2.2-1.6.8-.3,1.64-.4,2.55-.27.9.13,1.85.45,2.86.96,1.01.5,2.21,1.36,3.61,2.58,1.66,1.44,2.84,2.77,3.57,4,.72,1.23,1.07,2.42,1.03,3.58-.03,1.16-.5,2.26-1.4,3.3-1.18,1.37-2.6,2.01-4.25,1.93-1.99-.09-4.31-1.29-6.96-3.59h0ZM212.39,432.12c2.32,2.01,4.1,3.08,5.34,3.21,1.23.12,2.2-.21,2.89-1,.7-.81.89-1.8.59-3.01-.3-1.21-1.61-2.82-3.92-4.84-2.32-2.02-4.11-3.09-5.34-3.21-1.24-.12-2.21.22-2.91,1.03-.7.8-.91,1.73-.65,2.79.34,1.33,1.67,3.02,3.99,5.04Z"/>
          <path class="cls-4" d="M220.27,422.55c-1.64-1.48-2.81-2.84-3.51-4.08-.7-1.24-1.02-2.44-.96-3.6.05-1.16.54-2.24,1.44-3.25.68-.75,1.42-1.26,2.22-1.56.81-.29,1.66-.37,2.56-.23.9.15,1.85.48,2.84,1,1,.52,2.19,1.41,3.57,2.64,1.64,1.47,2.8,2.82,3.5,4.06.7,1.24,1.02,2.44.97,3.6-.06,1.16-.54,2.24-1.46,3.26-1.21,1.34-2.63,1.96-4.28,1.86-1.98-.12-4.28-1.36-6.89-3.72h0ZM221.86,420.8c2.28,2.06,4.04,3.16,5.28,3.31,1.23.14,2.21-.17,2.91-.96.71-.79.92-1.79.64-3.01-.28-1.21-1.56-2.86-3.83-4.9-2.29-2.06-4.06-3.16-5.29-3.3-1.24-.15-2.21.18-2.92.97-.71.79-.94,1.72-.7,2.78.32,1.35,1.62,3.05,3.9,5.11Z"/>
          <path class="cls-4" d="M242.49,411.32l-1.54,1.71-10.87-9.8c.01.76-.08,1.65-.29,2.67-.21,1.02-.46,1.89-.74,2.59l-1.65-1.48c.42-1.36.61-2.69.62-3.98,0-1.29-.16-2.35-.49-3.2l.99-1.09,13.97,12.57Z"/>
          <path class="cls-4" d="M239.67,400.65c-1.59-1.54-2.72-2.94-3.37-4.2-.66-1.26-.94-2.48-.84-3.63.1-1.15.62-2.22,1.56-3.2.7-.71,1.46-1.21,2.28-1.48.81-.27,1.66-.31,2.56-.14.89.17,1.83.54,2.81,1.1.99.55,2.14,1.47,3.48,2.77,1.58,1.52,2.69,2.91,3.35,4.18.66,1.26.93,2.47.84,3.63-.1,1.15-.62,2.23-1.57,3.21-1.25,1.3-2.69,1.87-4.34,1.71-1.98-.19-4.23-1.51-6.76-3.95h0ZM241.31,398.95c2.21,2.13,3.92,3.29,5.16,3.48,1.23.2,2.21-.09,2.94-.85.74-.76.99-1.75.75-2.98-.24-1.22-1.46-2.9-3.66-5.03-2.21-2.14-3.94-3.3-5.17-3.49-1.22-.19-2.21.1-2.96.87-.73.76-.99,1.68-.79,2.75.27,1.36,1.51,3.11,3.73,5.25Z"/>
          <path class="cls-4" d="M262.77,390.48l-1.68,1.56-9.98-10.71c-.04.76-.22,1.64-.51,2.63-.3,1-.62,1.84-.96,2.52l-1.51-1.62c.53-1.32.85-2.62.97-3.91.11-1.28.04-2.36-.21-3.23l1.08-1.01,12.81,13.75Z"/>
          <path class="cls-4" d="M271.71,381.85l-1.68,1.57-9.99-10.71c-.04.76-.21,1.64-.51,2.64-.3,1-.62,1.84-.97,2.52l-1.51-1.62c.53-1.31.85-2.62.97-3.91.11-1.28.05-2.36-.22-3.23l1.08-1,12.82,13.74Z"/>
          <path class="cls-4" d="M281.4,373.47l-1.74,1.5-9.6-11.05c-.07.76-.27,1.64-.6,2.62-.34.99-.68,1.82-1.05,2.49l-1.46-1.67c.57-1.3.94-2.59,1.1-3.87.16-1.27.13-2.35-.1-3.23l1.12-.97,12.33,14.18Z"/>
          <path class="cls-4" d="M280.11,362.25c-1.36-1.74-2.28-3.29-2.75-4.63-.47-1.34-.58-2.58-.32-3.71.25-1.13.92-2.12,1.99-2.95.79-.62,1.62-1,2.46-1.15.84-.15,1.7-.08,2.56.22.86.3,1.73.79,2.63,1.48.89.69,1.91,1.76,3.06,3.23,1.35,1.73,2.26,3.26,2.74,4.6.48,1.34.58,2.58.33,3.71-.25,1.13-.92,2.12-2,2.97-1.42,1.11-2.93,1.47-4.54,1.09-1.93-.47-3.98-2.09-6.14-4.86h0ZM281.97,360.8c1.89,2.41,3.43,3.81,4.63,4.16,1.19.35,2.2.22,3.03-.44.84-.65,1.22-1.59,1.16-2.84-.06-1.25-1.04-3.08-2.92-5.5-1.9-2.42-3.44-3.81-4.63-4.17-1.19-.36-2.2-.21-3.05.45-.83.65-1.22,1.52-1.16,2.61.08,1.38,1.06,3.29,2.95,5.72Z"/>
          <path class="cls-4" d="M303.95,355.32l-1.86,1.35-8.6-11.84c-.14.75-.41,1.6-.83,2.56-.42.96-.84,1.75-1.26,2.38l-1.31-1.79c.69-1.24,1.16-2.5,1.44-3.76.26-1.26.33-2.34.18-3.23l1.19-.87,11.05,15.21Z"/>
          <path class="cls-4" d="M313.94,347.74l-1.86,1.35-8.6-11.84c-.14.75-.41,1.61-.83,2.56-.42.96-.84,1.74-1.26,2.38l-1.31-1.8c.68-1.24,1.17-2.49,1.44-3.75.27-1.27.33-2.34.18-3.23l1.19-.87,11.05,15.21Z"/>
          <path class="cls-4" d="M324.38,340.69l-1.9,1.29-8.19-12.13c-.17.74-.47,1.58-.92,2.53-.45.93-.9,1.72-1.35,2.33l-1.23-1.84c.72-1.22,1.24-2.46,1.56-3.7.32-1.25.41-2.33.3-3.22l1.22-.82,10.51,15.58Z"/>
          <path class="cls-4" d="M334.82,333.66l-1.95,1.22-7.76-12.42c-.19.74-.53,1.57-1.01,2.49-.49.93-.96,1.69-1.43,2.29l-1.17-1.87c.77-1.2,1.33-2.41,1.69-3.65.36-1.24.49-2.31.41-3.21l1.25-.78,9.96,15.94Z"/>
          <path class="cls-4" d="M335.03,322.57c-1.17-1.87-1.93-3.5-2.25-4.89-.33-1.38-.31-2.63.07-3.73.37-1.09,1.13-2,2.29-2.72.86-.53,1.71-.83,2.56-.88.86-.06,1.7.1,2.52.48.82.39,1.64.97,2.46,1.75.82.78,1.72,1.96,2.7,3.53,1.17,1.86,1.91,3.48,2.25,4.86.33,1.39.32,2.63-.06,3.73-.37,1.1-1.14,2.01-2.3,2.74-1.54.96-3.08,1.16-4.64.61-1.87-.66-3.74-2.49-5.6-5.47h0ZM337.04,321.32c1.63,2.6,3.01,4.15,4.17,4.63,1.15.48,2.17.44,3.06-.11.9-.57,1.38-1.47,1.44-2.72.07-1.24-.71-3.17-2.33-5.77-1.63-2.61-3.02-4.16-4.17-4.63-1.14-.48-2.17-.44-3.08.13-.9.56-1.38,1.39-1.43,2.48-.07,1.38.71,3.38,2.34,5.99Z"/>
          <path class="cls-4" d="M359.89,318.52l-1.98,1.15-7.33-12.68c-.21.74-.58,1.56-1.09,2.46-.52.9-1.02,1.65-1.51,2.24l-1.11-1.92c.81-1.17,1.41-2.37,1.82-3.59.4-1.23.58-2.29.51-3.19l1.28-.74,9.4,16.28Z"/>
          <path class="cls-4" d="M360.53,307.42c-1.04-1.96-1.68-3.64-1.9-5.04-.24-1.41-.12-2.64.32-3.71.45-1.07,1.27-1.92,2.47-2.56.89-.47,1.76-.7,2.62-.7s1.68.22,2.48.66c.79.44,1.57,1.08,2.33,1.92.77.83,1.58,2.06,2.45,3.7,1.03,1.94,1.67,3.61,1.9,5.01.24,1.41.13,2.65-.32,3.72-.45,1.07-1.28,1.92-2.49,2.57-1.6.84-3.15.94-4.67.28-1.82-.8-3.56-2.75-5.2-5.85h0ZM362.61,306.31c1.44,2.72,2.72,4.35,3.83,4.91,1.11.56,2.14.6,3.07.09.94-.49,1.47-1.36,1.63-2.6.16-1.24-.48-3.21-1.92-5.91-1.44-2.72-2.72-4.36-3.84-4.91-1.12-.56-2.14-.59-3.09-.08-.93.5-1.46,1.28-1.6,2.37-.16,1.38.48,3.43,1.92,6.14Z"/>
          <path class="cls-4" d="M385.37,305.01l-2.07,1-6.42-13.15c-.27.71-.69,1.5-1.27,2.37-.58.87-1.13,1.58-1.66,2.12l-.97-1.99c.89-1.1,1.58-2.25,2.07-3.45.49-1.2.74-2.24.74-3.15l1.33-.64,8.24,16.89Z"/>
          <path class="cls-4" d="M396.73,299.41l-2.08.97-6.19-13.27c-.28.71-.71,1.49-1.3,2.35-.6.86-1.16,1.56-1.69,2.1l-.94-2.01c.91-1.09,1.62-2.23,2.13-3.42.5-1.19.77-2.23.79-3.13l1.34-.63,7.95,17.03Z"/>
          <path class="cls-4" d="M408.28,294.18l-2.08.97-6.19-13.27c-.28.71-.71,1.49-1.3,2.35-.59.86-1.16,1.55-1.69,2.09l-.94-2.01c.91-1.09,1.62-2.23,2.13-3.42.5-1.18.77-2.23.79-3.13l1.34-.63,7.94,17.03Z"/>
          <path class="cls-4" d="M410.09,283.1c-.87-2.04-1.35-3.76-1.46-5.19-.12-1.42.1-2.65.64-3.67.54-1.03,1.44-1.8,2.68-2.34.93-.39,1.82-.55,2.68-.47.85.07,1.65.37,2.41.87.76.51,1.47,1.21,2.16,2.11.69.89,1.39,2.19,2.11,3.9.86,2.02,1.34,3.74,1.46,5.15.11,1.42-.11,2.64-.64,3.67-.54,1.03-1.44,1.81-2.7,2.35-1.66.7-3.22.66-4.67-.13-1.74-.95-3.31-3.05-4.68-6.28h0ZM412.26,282.18c1.2,2.82,2.33,4.56,3.39,5.22,1.05.65,2.07.78,3.04.37.97-.42,1.59-1.24,1.85-2.45.26-1.22-.2-3.25-1.4-6.06-1.2-2.83-2.34-4.58-3.39-5.23-1.06-.66-2.08-.77-3.06-.35-.98.41-1.57,1.15-1.81,2.22-.27,1.36.18,3.45,1.38,6.28Z"/>
          <path class="cls-4" d="M434.95,282.88l-2.13.86-5.49-13.58c-.31.7-.79,1.46-1.42,2.29-.64.82-1.24,1.49-1.8,2l-.83-2.05c.96-1.04,1.73-2.14,2.31-3.3.56-1.16.88-2.18.95-3.09l1.38-.56,7.03,17.42Z"/>
          <path class="cls-4" d="M437.28,272c-.75-2.08-1.15-3.83-1.18-5.25-.03-1.43.25-2.64.84-3.63.59-1,1.53-1.72,2.81-2.19.95-.34,1.84-.45,2.69-.33.85.12,1.63.46,2.36,1,.73.55,1.41,1.29,2.04,2.22.64.93,1.27,2.27,1.91,4.01.75,2.06,1.14,3.81,1.18,5.23.04,1.43-.24,2.63-.84,3.63-.59,1-1.53,1.73-2.82,2.2-1.69.62-3.25.49-4.66-.37-1.69-1.04-3.14-3.21-4.34-6.51h0ZM439.5,271.19c1.06,2.89,2.09,4.68,3.12,5.4,1.02.7,2.03.88,3.02.52,1-.36,1.65-1.15,1.98-2.34.33-1.21-.03-3.25-1.09-6.14-1.05-2.89-2.09-4.69-3.11-5.4-1.02-.71-2.03-.88-3.04-.51-.99.36-1.63,1.07-1.92,2.12-.35,1.34,0,3.46,1.04,6.35Z"/>
          <path class="cls-4" d="M451.2,266.99c-.72-2.09-1.08-3.85-1.1-5.27,0-1.43.3-2.63.9-3.62.61-.98,1.56-1.7,2.85-2.14.95-.32,1.85-.42,2.7-.29.85.14,1.62.48,2.34,1.04.71.56,1.39,1.32,2.01,2.26.62.94,1.23,2.29,1.83,4.04.72,2.08,1.08,3.83,1.09,5.25.01,1.43-.29,2.62-.89,3.62-.61.99-1.57,1.7-2.86,2.15-1.71.59-3.25.44-4.65-.45-1.67-1.07-3.09-3.27-4.23-6.59h0ZM453.43,266.23c1,2.91,2.01,4.72,3.02,5.45,1.02.73,2.01.92,3.01.58,1-.34,1.67-1.12,2.02-2.32.35-1.2.02-3.25-.97-6.14-1-2.91-2.01-4.73-3.02-5.45-1.01-.73-2.02-.92-3.03-.57-1,.34-1.65,1.04-1.97,2.1-.37,1.33-.06,3.45.94,6.36Z"/>
          <path class="cls-4" d="M465.27,262.22c-.65-2.11-.95-3.89-.91-5.3.04-1.42.38-2.62,1.03-3.58.64-.97,1.62-1.64,2.91-2.04.97-.29,1.87-.36,2.71-.19.84.16,1.61.54,2.31,1.12.69.59,1.33,1.36,1.92,2.33.59.96,1.16,2.33,1.7,4.1.64,2.1.94,3.86.91,5.28-.04,1.42-.38,2.62-1.02,3.59-.65.96-1.62,1.64-2.93,2.05-1.73.53-3.27.32-4.63-.61-1.64-1.13-2.97-3.38-4-6.74h0ZM467.53,261.54c.9,2.93,1.84,4.79,2.83,5.55.98.76,1.98.99,2.99.68,1.01-.31,1.71-1.06,2.1-2.25.39-1.18.14-3.24-.76-6.17-.9-2.94-1.85-4.8-2.83-5.55-.99-.76-1.99-.98-3.01-.67-1.01.31-1.69.99-2.02,2.02-.43,1.32-.19,3.45.71,6.39Z"/>
          <path class="cls-4" d="M479.18,257.75c-.6-2.13-.88-3.9-.81-5.32.06-1.42.43-2.61,1.09-3.56.66-.95,1.65-1.61,2.96-1.99.97-.27,1.87-.32,2.71-.14.84.17,1.6.56,2.29,1.17.68.59,1.31,1.38,1.88,2.35.58.97,1.12,2.35,1.62,4.14.61,2.11.88,3.87.82,5.29-.07,1.42-.43,2.61-1.09,3.56-.66.96-1.65,1.62-2.97,2-1.74.5-3.27.27-4.62-.69-1.61-1.16-2.91-3.43-3.88-6.81h0ZM481.45,257.1c.85,2.96,1.76,4.82,2.73,5.6.97.78,1.96,1.02,2.98.74,1.02-.29,1.72-1.02,2.13-2.21.41-1.17.2-3.24-.65-6.19-.85-2.96-1.76-4.83-2.73-5.6-.97-.78-1.97-1.02-3-.72-1.02.29-1.71.96-2.07,1.99-.44,1.31-.24,3.44.6,6.39Z"/>
          <path class="cls-4" d="M493.37,253.55c-.58-2.14-.82-3.92-.73-5.34.09-1.42.47-2.6,1.16-3.54.67-.94,1.67-1.58,2.99-1.94.97-.26,1.87-.28,2.71-.1.84.19,1.59.6,2.26,1.2.67.61,1.29,1.41,1.85,2.39.55.98,1.07,2.37,1.55,4.16.57,2.12.81,3.89.73,5.31-.09,1.42-.48,2.6-1.15,3.54-.68.94-1.68,1.59-3,1.95-1.74.47-3.28.21-4.61-.77-1.59-1.18-2.85-3.48-3.75-6.87h0ZM495.64,252.93c.8,2.97,1.67,4.86,2.63,5.65.96.79,1.94,1.06,2.96.79,1.03-.27,1.75-1,2.18-2.17.43-1.17.25-3.24-.54-6.2-.79-2.97-1.68-4.86-2.63-5.65-.96-.8-1.95-1.05-2.99-.78-1.02.27-1.72.92-2.09,1.95-.47,1.3-.3,3.44.49,6.4Z"/>
          <path class="cls-4" d="M518.17,256.73l-2.22.55-3.55-14.2c-.41.65-.99,1.33-1.72,2.06-.75.73-1.44,1.31-2.07,1.74l-.54-2.16c1.1-.89,2.01-1.88,2.74-2.94.72-1.07,1.19-2.04,1.38-2.92l1.44-.36,4.55,18.24Z"/>
          <path class="cls-4" d="M530.32,253.92l-2.25.48-3.04-14.32c-.43.63-1.03,1.3-1.79,2-.77.71-1.48,1.26-2.13,1.67l-.46-2.17c1.13-.86,2.08-1.81,2.84-2.85.75-1.04,1.26-2,1.48-2.87l1.45-.32,3.9,18.38Z"/>
          <path class="cls-4" d="M534.37,243.54c-.42-2.17-.53-3.97-.34-5.37.19-1.42.66-2.57,1.4-3.45.74-.89,1.77-1.46,3.11-1.72.99-.19,1.89-.16,2.71.09.82.25,1.54.7,2.18,1.36.62.66,1.18,1.5,1.66,2.51.49,1.02.91,2.44,1.26,4.26.42,2.16.53,3.94.36,5.34-.19,1.42-.66,2.57-1.4,3.46-.73.9-1.78,1.47-3.12,1.73-1.77.34-3.29-.02-4.54-1.09-1.51-1.29-2.6-3.67-3.27-7.12h0ZM536.7,243.09c.59,3.01,1.33,4.95,2.23,5.81.9.86,1.87,1.19,2.91.99,1.04-.2,1.8-.87,2.32-2.01.51-1.14.47-3.21-.11-6.22-.59-3.02-1.33-4.96-2.24-5.82-.89-.86-1.87-1.18-2.92-.98-1.04.2-1.78.8-2.23,1.8-.56,1.27-.54,3.41.04,6.43Z"/>
          <path class="cls-4" d="M548.82,240.65c-.38-2.18-.47-3.97-.25-5.38.21-1.41.7-2.55,1.46-3.43.75-.88,1.8-1.44,3.13-1.67,1-.18,1.9-.13,2.72.14.82.27,1.53.73,2.15,1.39.62.67,1.16,1.51,1.62,2.54.47,1.03.86,2.45,1.18,4.28.38,2.16.46,3.95.26,5.36-.21,1.41-.69,2.55-1.45,3.43-.76.88-1.81,1.44-3.16,1.67-1.78.32-3.28-.07-4.52-1.16-1.49-1.32-2.53-3.71-3.14-7.18h0ZM551.15,240.24c.53,3.03,1.25,4.98,2.13,5.86.88.87,1.85,1.22,2.89,1.04,1.04-.18,1.82-.85,2.35-1.97.53-1.13.53-3.21,0-6.22-.54-3.03-1.25-4.98-2.13-5.85-.89-.88-1.85-1.22-2.91-1.03-1.03.19-1.79.78-2.25,1.76-.59,1.26-.61,3.41-.07,6.43Z"/>
          <path class="cls-5" d="M157.3,551.86l-1.62,1.62-10.35-10.35c-.01.76-.15,1.65-.42,2.66-.27,1.01-.56,1.86-.87,2.55l-1.57-1.57c.48-1.34.75-2.65.83-3.94.07-1.28-.04-2.37-.32-3.22l1.05-1.05,13.29,13.3Z"/>
          <path class="cls-5" d="M155.02,541.26c-1.57-1.57-2.66-2.99-3.29-4.26-.63-1.27-.89-2.49-.77-3.64.12-1.16.65-2.21,1.61-3.17.71-.71,1.48-1.19,2.31-1.44.82-.26,1.67-.29,2.56-.1.89.19,1.82.57,2.79,1.15.98.57,2.11,1.51,3.42,2.82,1.55,1.56,2.64,2.97,3.28,4.24.63,1.28.9,2.49.78,3.65-.11,1.16-.66,2.22-1.62,3.19-1.28,1.28-2.74,1.82-4.38,1.63-1.97-.23-4.2-1.58-6.69-4.07h0ZM156.69,539.59c2.17,2.17,3.87,3.36,5.1,3.57,1.22.21,2.21-.05,2.96-.8.75-.74,1.01-1.74.8-2.96-.21-1.23-1.4-2.93-3.57-5.1-2.18-2.18-3.88-3.37-5.1-3.57-1.22-.22-2.21.06-2.97.82-.75.74-1.02,1.66-.84,2.73.24,1.36,1.45,3.14,3.63,5.31Z"/>
          <path class="cls-5" d="M164.98,530.9c-1.59-1.54-2.72-2.94-3.37-4.2-.66-1.26-.94-2.48-.84-3.63.09-1.16.61-2.22,1.56-3.2.71-.73,1.46-1.22,2.28-1.48.81-.26,1.67-.3,2.56-.14.89.18,1.83.55,2.81,1.1.99.56,2.14,1.48,3.48,2.77,1.58,1.53,2.69,2.92,3.36,4.18.65,1.26.93,2.47.84,3.63-.1,1.16-.62,2.23-1.58,3.22-1.25,1.3-2.7,1.87-4.34,1.71-1.98-.19-4.24-1.51-6.76-3.95h0ZM166.63,529.2c2.21,2.14,3.93,3.29,5.16,3.49,1.23.19,2.21-.09,2.94-.85.74-.76.98-1.75.75-2.98-.24-1.23-1.45-2.91-3.65-5.03-2.21-2.13-3.94-3.31-5.17-3.49-1.22-.19-2.21.1-2.96.88-.73.76-.99,1.68-.8,2.75.27,1.35,1.51,3.11,3.73,5.24Z"/>
          <path class="cls-5" d="M174.96,520.54c-1.62-1.51-2.77-2.89-3.44-4.14-.69-1.26-.98-2.46-.9-3.62.08-1.16.58-2.23,1.51-3.22.69-.74,1.43-1.24,2.25-1.52.81-.28,1.66-.34,2.56-.18.89.16,1.83.51,2.83,1.05.99.54,2.17,1.44,3.52,2.71,1.6,1.49,2.74,2.86,3.42,4.12.68,1.25.98,2.46.91,3.61-.07,1.16-.58,2.24-1.52,3.25-1.23,1.32-2.66,1.91-4.31,1.78-1.98-.16-4.26-1.44-6.82-3.84h0ZM176.57,518.82c2.25,2.1,3.99,3.22,5.22,3.4,1.23.17,2.21-.13,2.93-.9.72-.78.95-1.77.69-3-.25-1.22-1.5-2.87-3.74-4.96-2.26-2.1-3.99-3.23-5.23-3.4-1.23-.17-2.21.15-2.94.93-.72.78-.97,1.69-.74,2.77.28,1.35,1.56,3.08,3.81,5.17Z"/>
          <path class="cls-5" d="M184.79,509.83c-1.62-1.51-2.77-2.89-3.44-4.15-.68-1.25-.98-2.46-.9-3.62.08-1.16.58-2.23,1.51-3.22.69-.74,1.44-1.24,2.25-1.52.81-.28,1.66-.34,2.56-.18.89.16,1.84.51,2.83,1.05.99.53,2.17,1.44,3.52,2.71,1.61,1.49,2.75,2.87,3.43,4.12.68,1.25.98,2.46.9,3.61-.07,1.16-.58,2.24-1.51,3.24-1.23,1.32-2.67,1.92-4.32,1.79-1.98-.16-4.26-1.44-6.83-3.83h0ZM186.4,508.09c2.24,2.1,3.99,3.23,5.22,3.4,1.23.17,2.21-.14,2.93-.91.72-.78.95-1.77.7-2.99-.26-1.22-1.5-2.88-3.74-4.97-2.26-2.1-4-3.24-5.23-3.4-1.23-.17-2.21.14-2.94.92-.72.77-.97,1.7-.75,2.77.29,1.35,1.57,3.08,3.81,5.17Z"/>
          <path class="cls-5" d="M194.5,499.21c-1.64-1.48-2.82-2.84-3.51-4.08-.7-1.24-1.02-2.44-.96-3.6.06-1.16.54-2.24,1.45-3.25.67-.74,1.41-1.27,2.22-1.55.81-.3,1.65-.37,2.55-.23.89.14,1.84.48,2.85,1,1,.53,2.19,1.41,3.57,2.65,1.63,1.47,2.79,2.82,3.5,4.06.7,1.25,1.02,2.44.97,3.6-.05,1.17-.54,2.25-1.46,3.27-1.21,1.34-2.63,1.96-4.28,1.86-1.98-.13-4.28-1.37-6.89-3.72h0ZM196.08,497.46c2.28,2.06,4.04,3.16,5.28,3.3,1.24.15,2.21-.17,2.91-.95.71-.78.92-1.79.65-3-.28-1.22-1.56-2.85-3.84-4.9-2.28-2.06-4.04-3.16-5.28-3.3-1.23-.14-2.21.18-2.93.97-.71.79-.94,1.71-.7,2.78.32,1.35,1.62,3.05,3.9,5.1Z"/>
          <path class="cls-5" d="M216.72,487.98l-1.54,1.7-10.88-9.8c.02.76-.07,1.65-.28,2.67-.21,1.02-.45,1.89-.74,2.59l-1.65-1.49c.41-1.36.62-2.68.62-3.97,0-1.29-.16-2.35-.49-3.19l.99-1.1,13.96,12.58Z"/>
          <path class="cls-5" d="M225.14,478.57l-1.54,1.71-10.88-9.8c.02.76-.07,1.65-.28,2.67-.21,1.02-.46,1.89-.74,2.59l-1.64-1.49c.41-1.36.62-2.68.62-3.98,0-1.29-.16-2.35-.5-3.19l.99-1.1,13.97,12.57Z"/>
          <path class="cls-5" d="M221.94,467.95c-1.67-1.45-2.87-2.79-3.58-4.02-.72-1.22-1.06-2.42-1.02-3.58.04-1.16.5-2.25,1.39-3.27.66-.76,1.39-1.29,2.2-1.6.8-.31,1.65-.4,2.55-.27.9.13,1.85.45,2.86.95,1.01.5,2.21,1.37,3.61,2.58,1.66,1.44,2.85,2.77,3.57,4,.72,1.22,1.07,2.42,1.04,3.58s-.5,2.25-1.4,3.29c-1.18,1.36-2.6,2.01-4.25,1.93-1.99-.09-4.31-1.29-6.96-3.59h0ZM223.49,466.17c2.32,2.02,4.09,3.08,5.34,3.21,1.24.12,2.2-.21,2.89-1.01.69-.8.89-1.81.59-3.01-.3-1.21-1.61-2.82-3.92-4.83-2.32-2.02-4.11-3.09-5.34-3.22-1.24-.12-2.21.22-2.91,1.03-.7.8-.91,1.73-.65,2.79.34,1.34,1.67,3.03,3.99,5.04Z"/>
          <path class="cls-5" d="M238.43,448.5c-1.64-1.48-2.82-2.84-3.51-4.08-.7-1.24-1.02-2.45-.96-3.6.06-1.16.54-2.25,1.45-3.25.67-.75,1.42-1.26,2.22-1.56.81-.29,1.65-.37,2.55-.23.9.15,1.85.48,2.85,1,1,.52,2.19,1.4,3.57,2.64,1.63,1.46,2.79,2.82,3.5,4.06.7,1.24,1.02,2.44.97,3.6-.05,1.16-.54,2.24-1.46,3.27-1.21,1.34-2.63,1.96-4.28,1.86-1.98-.12-4.28-1.37-6.89-3.71h0ZM240.01,446.74c2.29,2.06,4.05,3.15,5.29,3.3,1.24.14,2.21-.17,2.91-.96.7-.79.92-1.79.64-3-.27-1.22-1.55-2.85-3.83-4.9-2.29-2.06-4.05-3.16-5.29-3.3-1.23-.15-2.21.18-2.92.97-.72.79-.94,1.71-.7,2.78.31,1.35,1.62,3.05,3.9,5.11Z"/>
          <path class="cls-5" d="M260.66,437.26l-1.54,1.7-10.88-9.79c.02.76-.07,1.65-.28,2.67-.21,1.02-.46,1.89-.74,2.59l-1.65-1.48c.41-1.37.62-2.69.63-3.98,0-1.29-.16-2.36-.5-3.19l.99-1.1,13.97,12.58Z"/>
          <path class="cls-5" d="M257.83,426.59c-1.59-1.54-2.72-2.94-3.37-4.2-.66-1.26-.93-2.47-.84-3.63.1-1.15.62-2.22,1.56-3.2.7-.72,1.46-1.22,2.28-1.47.81-.27,1.67-.32,2.56-.14.89.17,1.82.54,2.81,1.1.99.55,2.14,1.48,3.48,2.77,1.58,1.52,2.69,2.92,3.35,4.17.66,1.26.94,2.48.84,3.63-.09,1.15-.62,2.23-1.57,3.22-1.25,1.3-2.7,1.87-4.35,1.71-1.98-.19-4.23-1.51-6.76-3.95h0ZM259.47,424.89c2.21,2.13,3.93,3.29,5.17,3.48,1.23.19,2.2-.1,2.94-.85.74-.76.98-1.75.75-2.98-.23-1.22-1.45-2.9-3.66-5.03-2.21-2.14-3.94-3.3-5.16-3.49-1.23-.19-2.21.1-2.96.87-.73.76-1,1.67-.79,2.75.27,1.36,1.51,3.11,3.72,5.24Z"/>
          <path class="cls-5" d="M280.93,416.42l-1.68,1.57-9.98-10.71c-.05.77-.22,1.64-.51,2.64-.31,1-.62,1.84-.97,2.52l-1.51-1.62c.53-1.31.85-2.61.97-3.9.11-1.28.05-2.36-.22-3.22l1.08-1.01,12.82,13.74Z"/>
          <path class="cls-5" d="M289.87,407.79l-1.68,1.56-9.98-10.71c-.04.76-.22,1.64-.51,2.64-.3,1-.62,1.84-.97,2.52l-1.51-1.62c.53-1.32.85-2.62.97-3.91.11-1.28.04-2.36-.21-3.22l1.07-1.01,12.82,13.75Z"/>
          <path class="cls-5" d="M299.56,399.41l-1.74,1.51-9.6-11.05c-.07.76-.27,1.63-.6,2.62-.34.99-.68,1.82-1.05,2.48l-1.46-1.67c.58-1.31.94-2.59,1.11-3.87.15-1.28.12-2.35-.1-3.23l1.12-.97,12.33,14.18Z"/>
          <path class="cls-5" d="M298.27,388.2c-1.37-1.75-2.29-3.29-2.76-4.63-.47-1.35-.58-2.59-.32-3.71.26-1.12.92-2.11,1.99-2.95.79-.62,1.62-1,2.46-1.15.84-.15,1.69-.08,2.56.22.85.29,1.73.79,2.62,1.48.9.69,1.91,1.76,3.05,3.22,1.36,1.74,2.26,3.27,2.75,4.6.47,1.34.58,2.58.32,3.71s-.92,2.12-2,2.96c-1.42,1.11-2.94,1.48-4.54,1.09-1.92-.47-3.98-2.08-6.14-4.85h0ZM300.12,386.74c1.89,2.42,3.44,3.81,4.63,4.17,1.2.36,2.2.21,3.03-.43.84-.65,1.22-1.6,1.16-2.85-.06-1.25-1.03-3.08-2.91-5.5-1.9-2.42-3.45-3.82-4.64-4.17-1.19-.35-2.2-.21-3.05.46-.84.65-1.22,1.52-1.17,2.61.08,1.38,1.06,3.29,2.95,5.71Z"/>
          <path class="cls-5" d="M322.11,381.26l-1.86,1.35-8.6-11.84c-.14.75-.41,1.6-.83,2.56-.42.95-.84,1.75-1.26,2.38l-1.31-1.79c.69-1.25,1.17-2.5,1.44-3.76.27-1.26.33-2.34.18-3.23l1.2-.87,11.04,15.2Z"/>
          <path class="cls-5" d="M332.1,373.68l-1.86,1.35-8.61-11.84c-.14.75-.41,1.6-.83,2.55-.42.95-.84,1.75-1.27,2.38l-1.3-1.8c.68-1.24,1.16-2.5,1.44-3.76.27-1.26.33-2.34.18-3.23l1.2-.87,11.05,15.2Z"/>
          <path class="cls-5" d="M342.54,366.64l-1.9,1.28-8.19-12.13c-.17.74-.47,1.59-.92,2.53-.45.94-.9,1.72-1.34,2.34l-1.24-1.84c.73-1.22,1.25-2.46,1.57-3.7.3-1.25.41-2.32.28-3.22l1.23-.83,10.51,15.59Z"/>
          <path class="cls-5" d="M352.97,359.6l-1.95,1.21-7.76-12.41c-.19.74-.52,1.56-1,2.49-.49.93-.96,1.69-1.42,2.29l-1.18-1.88c.77-1.19,1.34-2.41,1.7-3.65.35-1.23.49-2.3.4-3.21l1.25-.78,9.96,15.94Z"/>
          <path class="cls-5" d="M353.19,348.52c-1.17-1.88-1.92-3.51-2.25-4.89-.33-1.39-.31-2.63.07-3.73.37-1.09,1.14-2.01,2.29-2.72.85-.54,1.71-.83,2.57-.89.85-.06,1.69.1,2.52.48.82.39,1.64.97,2.46,1.75.82.77,1.72,1.95,2.7,3.53,1.16,1.86,1.91,3.48,2.24,4.87.33,1.38.31,2.62-.06,3.73-.37,1.09-1.13,2-2.3,2.74-1.53.96-3.07,1.16-4.63.6-1.87-.66-3.74-2.49-5.6-5.47h0ZM355.2,347.27c1.62,2.6,3.01,4.15,4.17,4.63,1.15.48,2.17.45,3.06-.11.9-.56,1.37-1.47,1.45-2.71.07-1.25-.71-3.17-2.33-5.77-1.63-2.61-3.03-4.16-4.17-4.63-1.15-.48-2.17-.43-3.09.14-.89.55-1.38,1.38-1.43,2.48-.07,1.38.72,3.38,2.34,5.99Z"/>
          <path class="cls-5" d="M378.05,344.47l-1.99,1.15-7.32-12.68c-.22.73-.58,1.55-1.09,2.45-.52.91-1.02,1.66-1.51,2.24l-1.1-1.91c.81-1.17,1.41-2.37,1.82-3.59.4-1.23.58-2.29.51-3.19l1.28-.74,9.4,16.28Z"/>
          <path class="cls-5" d="M378.69,333.36c-1.04-1.96-1.68-3.64-1.91-5.04-.23-1.41-.12-2.65.33-3.71.45-1.07,1.27-1.92,2.48-2.56.88-.47,1.75-.7,2.61-.7.86,0,1.69.22,2.48.66.79.45,1.57,1.08,2.33,1.92.76.83,1.58,2.07,2.45,3.71,1.03,1.94,1.66,3.61,1.9,5.01.23,1.4.13,2.64-.32,3.71-.45,1.07-1.27,1.92-2.49,2.57-1.59.85-3.15.94-4.66.28-1.82-.79-3.55-2.75-5.2-5.84h0ZM380.77,332.25c1.44,2.71,2.72,4.35,3.84,4.91,1.11.56,2.13.59,3.06.1.94-.5,1.47-1.36,1.63-2.6.16-1.24-.48-3.22-1.92-5.92-1.45-2.72-2.73-4.36-3.84-4.92-1.11-.56-2.13-.58-3.08-.08-.93.49-1.47,1.28-1.6,2.37-.16,1.37.48,3.42,1.92,6.13Z"/>
          <path class="cls-5" d="M403.52,330.95l-2.06,1.01-6.42-13.16c-.26.72-.69,1.51-1.26,2.37-.58.87-1.13,1.58-1.66,2.13l-.97-2c.89-1.11,1.58-2.26,2.07-3.45.48-1.2.73-2.24.73-3.15l1.33-.65,8.24,16.89Z"/>
          <path class="cls-5" d="M414.89,325.35l-2.08.97-6.19-13.27c-.28.71-.71,1.49-1.31,2.35-.59.86-1.15,1.57-1.7,2.1l-.94-2.01c.91-1.1,1.62-2.23,2.13-3.41.51-1.2.77-2.24.8-3.14l1.33-.62,7.94,17.03Z"/>
          <path class="cls-5" d="M426.45,320.12l-2.08.97-6.19-13.27c-.27.71-.71,1.5-1.3,2.35-.6.86-1.16,1.56-1.69,2.1l-.94-2.01c.91-1.09,1.62-2.23,2.13-3.42.51-1.18.77-2.23.79-3.13l1.34-.62,7.94,17.02Z"/>
          <path class="cls-5" d="M428.25,309.05c-.87-2.04-1.35-3.76-1.46-5.18-.11-1.43.12-2.65.65-3.67.54-1.02,1.44-1.8,2.69-2.33.92-.39,1.81-.55,2.67-.47.86.07,1.66.36,2.41.87.75.51,1.47,1.21,2.16,2.12.69.89,1.39,2.19,2.12,3.9.86,2.02,1.34,3.74,1.45,5.15.11,1.42-.1,2.64-.64,3.67-.54,1.03-1.44,1.81-2.7,2.34-1.66.71-3.21.67-4.67-.12-1.74-.96-3.3-3.05-4.68-6.28h0ZM430.42,308.12c1.21,2.83,2.34,4.57,3.39,5.23,1.06.65,2.07.78,3.04.37.97-.41,1.59-1.23,1.85-2.45.26-1.22-.2-3.24-1.39-6.06-1.22-2.84-2.34-4.58-3.4-5.23-1.06-.66-2.08-.77-3.06-.36-.97.42-1.57,1.16-1.8,2.23-.28,1.36.18,3.45,1.37,6.28Z"/>
          <path class="cls-5" d="M453.12,308.83l-2.13.86-5.48-13.58c-.32.7-.79,1.46-1.43,2.28-.64.83-1.24,1.5-1.8,2.01l-.83-2.06c.97-1.04,1.73-2.14,2.3-3.3.57-1.15.89-2.19.96-3.09l1.37-.56,7.04,17.43Z"/>
          <path class="cls-5" d="M455.44,297.94c-.75-2.08-1.15-3.84-1.18-5.26-.04-1.42.25-2.63.84-3.64.6-.99,1.53-1.72,2.81-2.18.94-.34,1.84-.45,2.7-.33.85.12,1.64.46,2.36,1,.72.55,1.41,1.29,2.04,2.22.64.93,1.27,2.26,1.91,4.01.75,2.06,1.15,3.8,1.18,5.22.04,1.43-.24,2.64-.83,3.64-.6,1-1.54,1.73-2.83,2.2-1.69.62-3.24.49-4.65-.37-1.69-1.04-3.14-3.22-4.34-6.51h0ZM457.66,297.13c1.05,2.89,2.09,4.68,3.12,5.39,1.02.71,2.03.88,3.01.53,1-.37,1.66-1.15,1.98-2.36.33-1.2-.03-3.25-1.08-6.13-1.05-2.89-2.1-4.69-3.12-5.4-1.02-.71-2.04-.88-3.04-.52-.99.36-1.63,1.08-1.92,2.13-.35,1.34,0,3.45,1.04,6.34Z"/>
          <path class="cls-5" d="M469.36,292.94c-.72-2.09-1.09-3.85-1.09-5.27-.01-1.43.29-2.63.9-3.61.61-.99,1.56-1.7,2.85-2.14.95-.33,1.85-.42,2.7-.29.84.13,1.62.48,2.34,1.04.71.56,1.38,1.31,2,2.26.62.94,1.23,2.29,1.83,4.04.72,2.08,1.08,3.82,1.09,5.25.01,1.42-.29,2.62-.9,3.61-.61.99-1.56,1.71-2.86,2.16-1.71.58-3.26.43-4.65-.46-1.67-1.07-3.09-3.27-4.23-6.59h0ZM471.59,292.17c1,2.9,2.01,4.72,3.02,5.45,1.01.72,2.02.92,3.01.57,1-.34,1.67-1.12,2.02-2.32.35-1.2.03-3.24-.97-6.14-1-2.92-2.01-4.74-3.02-5.46-1.01-.72-2.02-.91-3.03-.56-1.01.34-1.65,1.04-1.96,2.1-.37,1.33-.07,3.45.94,6.35Z"/>
          <path class="cls-5" d="M483.43,288.17c-.65-2.12-.95-3.89-.91-5.31.04-1.42.38-2.62,1.03-3.58.64-.96,1.62-1.64,2.91-2.04.96-.29,1.87-.36,2.71-.19.84.17,1.61.54,2.31,1.12.7.59,1.33,1.36,1.92,2.32.59.96,1.15,2.33,1.7,4.11.63,2.1.94,3.85.9,5.28-.04,1.42-.38,2.62-1.02,3.59-.64.97-1.62,1.65-2.94,2.05-1.72.53-3.26.33-4.62-.61-1.64-1.12-2.97-3.37-3.99-6.73h0ZM485.69,287.48c.9,2.94,1.85,4.79,2.83,5.55.98.76,1.98.99,2.99.68,1.02-.31,1.71-1.06,2.1-2.24.39-1.19.14-3.25-.76-6.18-.9-2.95-1.85-4.8-2.83-5.55-.98-.76-1.99-.99-3.01-.68-1.01.31-1.69.99-2.03,2.03-.42,1.32-.18,3.45.71,6.38Z"/>
          <path class="cls-5" d="M497.35,283.7c-.61-2.13-.88-3.9-.81-5.32.06-1.43.43-2.61,1.09-3.56.66-.95,1.65-1.61,2.95-1.99.96-.28,1.87-.32,2.71-.14.84.17,1.6.56,2.29,1.17.68.6,1.31,1.38,1.88,2.36.57.97,1.11,2.34,1.62,4.13.61,2.12.87,3.87.82,5.3-.07,1.43-.43,2.61-1.08,3.57-.66.96-1.65,1.62-2.96,2-1.74.5-3.27.27-4.62-.69-1.61-1.15-2.91-3.42-3.88-6.81h0ZM499.62,283.05c.84,2.95,1.75,4.82,2.72,5.6.97.78,1.96,1.02,2.98.74,1.02-.3,1.73-1.03,2.14-2.21.41-1.18.19-3.24-.66-6.19-.84-2.96-1.76-4.84-2.73-5.61-.97-.78-1.97-1.02-3-.72-1.02.29-1.7.95-2.06,1.98-.45,1.31-.24,3.45.61,6.4Z"/>
          <path class="cls-5" d="M511.52,279.49c-.57-2.14-.82-3.92-.73-5.34.09-1.43.48-2.6,1.16-3.54.68-.94,1.67-1.58,2.99-1.94.97-.26,1.88-.29,2.72-.1.83.19,1.59.59,2.26,1.2.67.61,1.28,1.4,1.84,2.39.55.98,1.07,2.37,1.55,4.16.57,2.12.81,3.89.73,5.31-.09,1.42-.47,2.6-1.15,3.55-.68.94-1.67,1.59-3.01,1.95-1.74.47-3.28.21-4.6-.77-1.6-1.18-2.86-3.48-3.76-6.87h0ZM513.8,278.88c.8,2.97,1.67,4.84,2.64,5.65.95.79,1.94,1.05,2.96.78,1.02-.27,1.74-1,2.17-2.17.43-1.17.25-3.24-.54-6.2-.8-2.97-1.68-4.86-2.63-5.65-.96-.79-1.95-1.05-2.99-.77-1.02.27-1.72.92-2.1,1.95-.46,1.3-.3,3.44.49,6.41Z"/>
          <path class="cls-5" d="M536.33,282.67l-2.23.56-3.54-14.2c-.41.65-.99,1.33-1.73,2.06-.75.74-1.44,1.31-2.06,1.73l-.54-2.15c1.1-.9,2.01-1.88,2.74-2.95.72-1.07,1.18-2.04,1.38-2.93l1.43-.35,4.55,18.23Z"/>
          <path class="cls-5" d="M548.48,279.86l-2.24.48-3.05-14.32c-.43.63-1.02,1.3-1.8,2.01-.77.7-1.48,1.25-2.13,1.66l-.46-2.17c1.13-.86,2.08-1.81,2.84-2.85.76-1.05,1.26-2,1.48-2.88l1.45-.31,3.91,18.38Z"/>
          <path class="cls-3" d="M186.88,545.19c-1.62-1.51-2.77-2.89-3.44-4.14-.68-1.25-.98-2.46-.9-3.61.07-1.15.58-2.23,1.51-3.22.69-.74,1.44-1.24,2.26-1.52.81-.28,1.66-.34,2.55-.18.89.16,1.84.5,2.83,1.05.99.54,2.16,1.44,3.52,2.71,1.61,1.49,2.75,2.87,3.42,4.12.68,1.25.98,2.46.91,3.61-.07,1.16-.58,2.24-1.51,3.24-1.23,1.32-2.67,1.91-4.32,1.78-1.98-.16-4.25-1.44-6.82-3.84h0ZM188.49,543.46c2.24,2.1,3.99,3.22,5.22,3.4,1.24.16,2.21-.14,2.93-.91.72-.77.95-1.77.7-2.99-.26-1.22-1.51-2.88-3.74-4.97-2.26-2.1-4-3.23-5.23-3.4-1.23-.17-2.21.14-2.94.92-.72.78-.97,1.69-.75,2.77.3,1.35,1.57,3.08,3.81,5.17Z"/>
          <path class="cls-3" d="M196.71,534.47c-1.62-1.5-2.77-2.89-3.44-4.14-.68-1.26-.98-2.46-.91-3.62.08-1.15.58-2.23,1.51-3.22.68-.74,1.43-1.24,2.25-1.52.81-.28,1.67-.34,2.56-.18.89.17,1.83.51,2.83,1.05,1,.54,2.17,1.45,3.53,2.71,1.6,1.5,2.74,2.87,3.42,4.12.68,1.25.98,2.45.91,3.61-.08,1.16-.58,2.23-1.52,3.24-1.23,1.32-2.67,1.92-4.31,1.79-1.98-.16-4.26-1.44-6.83-3.84h0ZM198.32,532.74c2.25,2.1,3.98,3.23,5.22,3.4,1.24.17,2.21-.13,2.93-.9.72-.78.95-1.78.7-2.99-.25-1.22-1.51-2.88-3.74-4.97-2.25-2.1-4-3.23-5.23-3.4-1.23-.17-2.21.14-2.94.92-.72.77-.96,1.69-.74,2.77.29,1.35,1.56,3.08,3.81,5.18Z"/>
          <path class="cls-3" d="M206.42,523.86c-1.65-1.48-2.82-2.84-3.51-4.08-.71-1.24-1.02-2.44-.97-3.6.06-1.15.54-2.24,1.45-3.25.68-.75,1.42-1.27,2.23-1.56.81-.3,1.66-.37,2.56-.23.89.14,1.85.47,2.84,1,1,.52,2.19,1.4,3.57,2.64,1.64,1.47,2.8,2.83,3.5,4.06.7,1.24,1.03,2.44.97,3.6-.05,1.16-.54,2.24-1.46,3.27-1.21,1.34-2.64,1.96-4.29,1.86-1.98-.13-4.28-1.36-6.89-3.71h0ZM208,522.1c2.28,2.06,4.04,3.16,5.29,3.31,1.23.15,2.2-.16,2.91-.95.71-.79.92-1.8.64-3.01-.27-1.22-1.55-2.86-3.83-4.9-2.29-2.06-4.05-3.17-5.29-3.31-1.24-.14-2.21.18-2.93.98-.71.79-.94,1.71-.69,2.78.32,1.35,1.62,3.05,3.9,5.1Z"/>
          <path class="cls-3" d="M228.65,512.63l-1.54,1.7-10.88-9.79c.02.76-.07,1.65-.28,2.67-.21,1.02-.46,1.89-.74,2.59l-1.64-1.48c.41-1.36.62-2.69.63-3.98,0-1.29-.16-2.35-.5-3.19l.99-1.1,13.97,12.58Z"/>
          <path class="cls-3" d="M237.06,503.21l-1.54,1.71-10.88-9.8c.02.77-.07,1.65-.28,2.68-.21,1.02-.46,1.89-.74,2.59l-1.65-1.49c.41-1.36.62-2.69.63-3.97,0-1.29-.16-2.35-.5-3.2l.99-1.09,13.97,12.57Z"/>
          <path class="cls-3" d="M233.87,492.6c-1.68-1.46-2.87-2.8-3.59-4.02-.72-1.22-1.06-2.42-1.02-3.58.04-1.16.5-2.25,1.39-3.28.66-.76,1.39-1.29,2.2-1.59.8-.31,1.64-.4,2.55-.27.9.12,1.85.44,2.86.95,1.01.51,2.22,1.37,3.62,2.59,1.66,1.44,2.84,2.77,3.57,4,.72,1.22,1.06,2.42,1.03,3.58-.03,1.15-.5,2.25-1.4,3.29-1.18,1.36-2.6,2.01-4.25,1.93-1.98-.09-4.3-1.29-6.95-3.59h0ZM235.41,490.82c2.32,2.01,4.1,3.08,5.34,3.21,1.24.12,2.21-.21,2.89-1.01.7-.8.89-1.8.59-3.01-.29-1.21-1.6-2.82-3.91-4.83-2.32-2.03-4.11-3.09-5.34-3.22-1.24-.12-2.21.22-2.91,1.03-.7.8-.91,1.73-.65,2.79.34,1.34,1.67,3.02,3.99,5.04Z"/>
          <path class="cls-3" d="M243.18,481.61c-1.67-1.45-2.87-2.79-3.59-4.02-.72-1.22-1.06-2.42-1.02-3.58.04-1.16.51-2.25,1.39-3.27.66-.76,1.39-1.29,2.2-1.6.8-.31,1.65-.39,2.55-.27.9.13,1.85.45,2.87.95,1,.5,2.21,1.36,3.61,2.58,1.66,1.44,2.84,2.77,3.57,4,.73,1.22,1.07,2.42,1.03,3.58-.03,1.15-.5,2.25-1.4,3.29-1.18,1.36-2.6,2-4.25,1.93-1.99-.09-4.3-1.29-6.96-3.59h0ZM244.72,479.83c2.32,2.02,4.1,3.08,5.34,3.21,1.24.12,2.2-.21,2.89-1,.69-.8.89-1.8.59-3.01-.3-1.21-1.6-2.83-3.92-4.84-2.33-2.02-4.11-3.09-5.34-3.21-1.24-.12-2.2.22-2.91,1.03-.69.8-.91,1.73-.65,2.79.34,1.34,1.67,3.03,3.99,5.04Z"/>
          <path class="cls-3" d="M265.26,470.01l-1.54,1.71-10.87-9.8c.02.76-.07,1.65-.28,2.67-.21,1.03-.46,1.89-.74,2.6l-1.64-1.49c.4-1.36.61-2.68.62-3.97,0-1.29-.17-2.36-.5-3.2l.99-1.1,13.97,12.58Z"/>
          <path class="cls-3" d="M262.18,459.29c-1.65-1.48-2.82-2.84-3.51-4.08-.7-1.24-1.02-2.44-.96-3.6.05-1.16.54-2.24,1.45-3.25.67-.75,1.41-1.27,2.23-1.56.8-.3,1.66-.37,2.55-.23.89.14,1.85.48,2.85,1,1,.52,2.19,1.4,3.57,2.64,1.63,1.47,2.8,2.83,3.49,4.06.7,1.24,1.02,2.44.97,3.6-.05,1.16-.54,2.25-1.46,3.27-1.21,1.34-2.63,1.96-4.28,1.86-1.98-.13-4.28-1.37-6.89-3.71h0ZM263.76,457.53c2.29,2.06,4.05,3.15,5.29,3.3,1.24.15,2.21-.17,2.91-.95.71-.79.92-1.79.64-3.01-.27-1.21-1.55-2.85-3.83-4.9-2.29-2.06-4.05-3.17-5.29-3.3-1.23-.15-2.21.18-2.92.98-.71.78-.94,1.71-.7,2.78.32,1.35,1.62,3.05,3.9,5.1Z"/>
          <path class="cls-3" d="M285.17,448.54l-1.6,1.65-10.53-10.17c0,.76-.13,1.65-.37,2.66-.25,1.01-.53,1.87-.84,2.56l-1.59-1.54c.46-1.34.71-2.66.76-3.94.04-1.29-.08-2.36-.38-3.22l1.02-1.06,13.52,13.05Z"/>
          <path class="cls-3" d="M294.21,440.02l-1.68,1.57-9.98-10.71c-.05.76-.22,1.64-.51,2.64-.3,1-.62,1.84-.97,2.52l-1.51-1.62c.53-1.32.85-2.62.97-3.9.12-1.29.05-2.36-.21-3.23l1.08-1.01,12.82,13.75Z"/>
          <path class="cls-3" d="M303.16,431.13l-1.68,1.56-9.99-10.71c-.04.77-.21,1.65-.51,2.65-.3.99-.61,1.84-.96,2.52l-1.51-1.61c.53-1.33.85-2.62.97-3.91.11-1.28.04-2.36-.21-3.22l1.08-1.01,12.82,13.75Z"/>
          <path class="cls-3" d="M301.67,420.43c-1.45-1.67-2.44-3.16-2.99-4.48-.54-1.31-.71-2.55-.52-3.69s.81-2.16,1.83-3.05c.76-.67,1.56-1.09,2.4-1.28.83-.19,1.69-.16,2.56.09.88.25,1.77.7,2.7,1.34.93.64,2,1.66,3.22,3.06,1.44,1.66,2.43,3.14,2.98,4.45.54,1.32.72,2.55.52,3.7-.2,1.14-.81,2.17-1.85,3.06-1.36,1.19-2.85,1.63-4.47,1.32-1.96-.37-4.09-1.87-6.4-4.52h0ZM303.45,418.87c2.02,2.32,3.63,3.62,4.84,3.92,1.21.29,2.21.1,3.01-.59.8-.7,1.13-1.66,1-2.91-.12-1.23-1.19-3.02-3.2-5.33-2.02-2.33-3.64-3.63-4.84-3.93-1.21-.29-2.21-.09-3.02.62-.8.69-1.14,1.58-1.03,2.67.15,1.38,1.23,3.23,3.25,5.55Z"/>
          <path class="cls-3" d="M325.46,412.43l-1.81,1.41-9.01-11.54c-.11.76-.35,1.62-.74,2.59-.39.97-.78,1.78-1.18,2.42l-1.36-1.75c.64-1.27,1.07-2.55,1.3-3.81.22-1.27.25-2.35.07-3.23l1.17-.91,11.56,14.81Z"/>
          <path class="cls-3" d="M335.39,404.86l-1.86,1.35-8.6-11.85c-.14.76-.41,1.61-.83,2.56-.42.95-.84,1.75-1.26,2.38l-1.3-1.79c.69-1.25,1.16-2.5,1.44-3.76.27-1.26.33-2.34.19-3.23l1.19-.87,11.05,15.21Z"/>
          <path class="cls-3" d="M345.64,397.28l-1.86,1.35-8.61-11.84c-.13.75-.41,1.61-.83,2.56-.42.96-.84,1.75-1.26,2.39l-1.31-1.8c.69-1.25,1.17-2.5,1.44-3.76.27-1.26.33-2.33.17-3.23l1.2-.87,11.05,15.2Z"/>
          <path class="cls-3" d="M356.09,390.24l-1.91,1.28-8.19-12.14c-.17.75-.47,1.59-.92,2.53-.45.94-.9,1.72-1.35,2.34l-1.24-1.84c.73-1.22,1.25-2.46,1.56-3.71.31-1.25.41-2.32.29-3.22l1.22-.83,10.51,15.58Z"/>
          <path class="cls-3" d="M355.96,378.91c-1.17-1.88-1.92-3.51-2.25-4.89-.33-1.38-.3-2.63.07-3.72.37-1.1,1.14-2.01,2.29-2.73.85-.54,1.7-.83,2.56-.88.86-.06,1.69.1,2.52.48.82.39,1.65.97,2.46,1.74.82.79,1.72,1.96,2.7,3.53,1.16,1.86,1.91,3.48,2.24,4.86.33,1.39.31,2.63-.06,3.73-.37,1.1-1.14,2.01-2.3,2.74-1.53.95-3.07,1.16-4.63.6-1.87-.66-3.74-2.49-5.6-5.47h0ZM357.97,377.67c1.63,2.6,3.02,4.14,4.17,4.63,1.15.47,2.17.44,3.06-.12.89-.56,1.37-1.46,1.44-2.71.07-1.25-.71-3.17-2.33-5.77-1.64-2.61-3.03-4.15-4.17-4.64-1.15-.48-2.17-.43-3.08.14-.9.56-1.38,1.39-1.44,2.48-.07,1.38.71,3.38,2.34,5.99Z"/>
          <path class="cls-3" d="M380.55,374.6l-1.99,1.15-7.32-12.68c-.22.73-.58,1.55-1.09,2.46-.51.9-1.01,1.65-1.5,2.24l-1.11-1.92c.81-1.17,1.41-2.36,1.82-3.59.4-1.22.57-2.29.51-3.19l1.28-.74,9.39,16.28Z"/>
          <path class="cls-3" d="M381.2,363.23c-1.04-1.95-1.67-3.64-1.91-5.03-.23-1.4-.12-2.64.33-3.71.45-1.07,1.28-1.92,2.47-2.56.89-.47,1.76-.7,2.62-.7s1.68.22,2.48.66c.79.44,1.57,1.08,2.33,1.91.76.84,1.58,2.07,2.45,3.71,1.03,1.94,1.66,3.6,1.9,5.01.23,1.41.13,2.65-.32,3.71-.45,1.07-1.27,1.93-2.49,2.57-1.59.85-3.15.94-4.66.29-1.82-.79-3.55-2.75-5.21-5.85h0ZM383.28,362.12c1.44,2.72,2.72,4.35,3.84,4.91,1.11.56,2.13.59,3.06.09.94-.5,1.47-1.36,1.63-2.6.16-1.24-.48-3.21-1.92-5.91-1.45-2.72-2.72-4.36-3.84-4.91-1.11-.56-2.14-.58-3.08-.09-.93.5-1.47,1.29-1.61,2.37-.16,1.38.47,3.43,1.92,6.14Z"/>
          <path class="cls-3" d="M405.88,360.53l-2.03,1.07-6.88-12.93c-.24.73-.63,1.53-1.18,2.42-.55.89-1.07,1.62-1.58,2.19l-1.04-1.96c.85-1.14,1.5-2.31,1.94-3.52.44-1.21.66-2.27.63-3.17l1.3-.69,8.83,16.6Z"/>
          <path class="cls-3" d="M417.06,354.81l-2.06,1-6.42-13.16c-.26.72-.68,1.51-1.26,2.37-.58.87-1.13,1.58-1.66,2.13l-.97-1.99c.89-1.11,1.58-2.26,2.07-3.45.48-1.2.73-2.24.74-3.15l1.33-.65,8.23,16.89Z"/>
          <path class="cls-3" d="M428.43,349.21l-2.08.97-6.19-13.27c-.28.71-.71,1.49-1.3,2.35-.59.86-1.16,1.56-1.7,2.1l-.93-2.01c.91-1.09,1.62-2.23,2.13-3.42s.77-2.23.8-3.13l1.33-.62,7.94,17.03Z"/>
          <path class="cls-3" d="M430.23,338.14c-.87-2.03-1.35-3.77-1.46-5.18-.11-1.42.11-2.65.65-3.67.54-1.02,1.44-1.8,2.69-2.33.93-.39,1.82-.55,2.67-.47.86.07,1.66.36,2.42.87.75.51,1.47,1.21,2.15,2.11.69.89,1.39,2.2,2.12,3.91.86,2.02,1.34,3.74,1.46,5.16.11,1.42-.1,2.64-.64,3.67-.54,1.03-1.44,1.81-2.7,2.35-1.66.7-3.22.66-4.67-.13-1.74-.95-3.31-3.04-4.68-6.28h0ZM432.41,337.21c1.2,2.83,2.33,4.57,3.38,5.23,1.06.65,2.07.78,3.04.36.98-.41,1.59-1.23,1.85-2.45.26-1.22-.2-3.24-1.4-6.06-1.2-2.84-2.33-4.57-3.4-5.22-1.05-.65-2.07-.77-3.06-.35-.97.41-1.57,1.15-1.8,2.22-.28,1.36.18,3.45,1.38,6.28Z"/>
          <path class="cls-3" d="M455.17,337.55l-2.14.82-5.25-13.67c-.33.69-.82,1.45-1.47,2.26-.65.81-1.26,1.47-1.83,1.98l-.8-2.07c.99-1.03,1.77-2.11,2.36-3.26.58-1.16.93-2.17,1.01-3.07l1.39-.53,6.73,17.54Z"/>
          <path class="cls-3" d="M457.43,326.51c-.75-2.09-1.15-3.83-1.18-5.25-.04-1.43.25-2.64.84-3.63.6-.99,1.53-1.72,2.81-2.19.94-.34,1.84-.45,2.69-.33.84.12,1.64.45,2.36,1,.73.55,1.41,1.28,2.04,2.22.64.93,1.27,2.27,1.91,4.01.75,2.06,1.14,3.8,1.18,5.22.04,1.43-.24,2.64-.83,3.63-.59,1-1.53,1.73-2.83,2.2-1.69.62-3.24.5-4.65-.37-1.69-1.04-3.14-3.21-4.34-6.51h0ZM459.65,325.7c1.05,2.89,2.09,4.68,3.11,5.4,1.02.71,2.03.88,3.02.52,1-.36,1.65-1.14,1.98-2.35.33-1.21-.03-3.25-1.08-6.12-1.05-2.9-2.1-4.7-3.11-5.4-1.03-.71-2.04-.88-3.05-.51-.99.36-1.63,1.07-1.91,2.13-.36,1.34,0,3.45,1.04,6.34Z"/>
          <path class="cls-3" d="M470.93,321.28c-.76-2.08-1.16-3.83-1.19-5.25-.04-1.43.25-2.63.84-3.63.59-1,1.53-1.73,2.81-2.2.95-.34,1.85-.45,2.7-.33.85.12,1.63.45,2.36,1,.72.55,1.41,1.29,2.03,2.22.64.93,1.28,2.27,1.92,4.01.75,2.07,1.14,3.81,1.18,5.23.04,1.43-.24,2.63-.84,3.64-.58,1-1.52,1.73-2.82,2.2-1.69.62-3.24.5-4.66-.37-1.69-1.04-3.14-3.21-4.34-6.52h0ZM473.14,320.47c1.05,2.89,2.09,4.68,3.12,5.4,1.02.71,2.02.88,3.01.52.99-.36,1.65-1.15,1.98-2.35.32-1.2-.03-3.25-1.08-6.12-1.06-2.89-2.1-4.7-3.12-5.4-1.03-.71-2.03-.88-3.04-.51-.99.36-1.63,1.07-1.92,2.13-.35,1.34,0,3.46,1.05,6.34Z"/>
          <path class="cls-3" d="M484.84,316.28c-.72-2.1-1.08-3.85-1.09-5.27-.01-1.43.29-2.63.9-3.62.61-.98,1.56-1.7,2.85-2.14.95-.32,1.85-.42,2.69-.28.85.14,1.63.48,2.35,1.04.72.56,1.39,1.31,2,2.25.63.95,1.23,2.29,1.84,4.05.72,2.07,1.08,3.82,1.09,5.24.01,1.43-.29,2.63-.89,3.62-.61.99-1.57,1.7-2.86,2.15-1.71.59-3.26.44-4.65-.45-1.67-1.07-3.08-3.27-4.23-6.59h0ZM487.07,315.51c1,2.91,2.01,4.72,3.01,5.45,1.01.73,2.02.92,3.01.58,1-.34,1.67-1.12,2.02-2.32.35-1.2.03-3.25-.97-6.14-1.01-2.91-2.02-4.73-3.02-5.46-1.02-.73-2.02-.91-3.03-.56-1,.34-1.65,1.04-1.96,2.09-.38,1.33-.06,3.46.94,6.36Z"/>
          <path class="cls-3" d="M498.91,311.51c-.65-2.12-.95-3.89-.91-5.31.04-1.42.38-2.61,1.03-3.58.64-.96,1.61-1.64,2.92-2.04.96-.29,1.86-.36,2.71-.19.84.16,1.61.54,2.31,1.12.69.59,1.33,1.36,1.92,2.32.6.96,1.15,2.33,1.69,4.11.65,2.1.94,3.86.91,5.28-.04,1.42-.38,2.61-1.02,3.59-.65.96-1.62,1.65-2.93,2.05-1.72.53-3.27.33-4.64-.61-1.62-1.13-2.96-3.38-3.99-6.73h0ZM501.17,310.82c.9,2.94,1.84,4.79,2.82,5.55.99.76,1.98.99,2.99.68,1.01-.31,1.71-1.06,2.09-2.25.39-1.18.14-3.24-.76-6.17-.9-2.95-1.84-4.8-2.83-5.56-.98-.77-1.98-.98-3-.67-1.02.31-1.69.99-2.03,2.03-.42,1.32-.18,3.45.71,6.39Z"/>
          <path class="cls-3" d="M512.99,307.01c-.57-2.14-.82-3.92-.72-5.34.09-1.42.47-2.6,1.16-3.54.67-.94,1.67-1.59,2.98-1.94.98-.26,1.88-.29,2.72-.09.83.19,1.59.59,2.26,1.2.67.61,1.29,1.41,1.85,2.39.56.99,1.07,2.37,1.55,4.16.57,2.13.81,3.89.72,5.31-.09,1.42-.47,2.6-1.15,3.55s-1.68,1.59-3,1.94c-1.74.47-3.28.22-4.61-.77-1.59-1.18-2.85-3.47-3.76-6.87h0ZM515.26,306.4c.8,2.97,1.68,4.85,2.64,5.65.96.8,1.95,1.06,2.96.79,1.02-.27,1.75-1,2.17-2.18.43-1.17.25-3.23-.54-6.19-.8-2.98-1.68-4.86-2.64-5.65-.95-.8-1.95-1.05-2.98-.78-1.02.28-1.72.93-2.1,1.95-.47,1.31-.3,3.45.49,6.41Z"/>
          <path class="cls-3" d="M537.8,309.93l-2.23.56-3.54-14.21c-.41.65-.99,1.34-1.73,2.06-.75.73-1.43,1.31-2.06,1.74l-.54-2.16c1.1-.89,2.02-1.87,2.75-2.94.72-1.07,1.18-2.04,1.38-2.93l1.43-.36,4.55,18.23Z"/>
          <path class="cls-3" d="M549.91,306.96l-2.24.51-3.3-14.26c-.42.64-1.01,1.31-1.76,2.03-.76.72-1.46,1.28-2.09,1.7l-.5-2.16c1.12-.88,2.05-1.84,2.79-2.9.74-1.06,1.22-2.02,1.43-2.9l1.44-.33,4.23,18.31Z"/>
        </g>
      </g>
      <path class="cls-7" d="M311.08,96.38s-37.8-10.51-55.29-20.79c-17.49-10.29-32.55-17.28-51.71-12.36-36.02,9.27-89.52,103.41-106.72,148.16-7.24,18.84-4.25,76.39,5.15,118.32,9.39,41.92,60.65,178.47,144.61,190.31,83.96,11.85,121.4-45.35,130.28-63.77,8.88-18.42,12.83-33.13,13.18-60.58.09-7.31-1.96-13.42-3.84-19.41-9.06-28.87-36.27-43.38-47.64-47.55-12.9-4.73-36.51-10.9-64.25-1.77-13.54,4.46-30.11,11.67-43.51,28.5-15.31,19.23-16.77,40.26-13.68,53.18,5.15,21.53,22.81,33.29,35.91,37.88,15.57,5.47,29.09,6.99,44.1,2.5,18.04-5.39,38.48-23.36,42.42-42.82,1.73-8.52,1.11-21.95-5.01-30.46-16.11-22.38-47.64-23.27-65.18-12.01-7.97,5.13-18.97,19.35-18.65,29.47.97,30.95,43.39,37.59,58.37,15.15,10.22-22.89-9.21-33.86-22.29-29.9-10.32,3.12-20.1,16.23-13.03,25.25,5.84,7.45,16.69,5.99,22,1.2,2.35-6.3-.25-8.03-7.8-5.18-16.92,1.06-1.16-20.17,11.35-7.78,4.35,4.31,2.98,9.62-.27,13.44-1.95,2.29-4.71,3.67-6.97,5.03,0,0-9.46,3.27-14.21,1.17-24.74-10.91-10.56-36.32,11.16-39.25,26.4-3.56,44.28,12.61,32.98,38.06-12.1,27.24-42.95,33.48-68.08,21.18-22.55-11.04-26.95-37.69-15.61-58.45,14.72-26.92,50.28-38.05,79.01-28.65,32.2,10.53,44.49,33.73,42.62,57.97-1.87,24.24-12.87,51.14-37.29,66.86-23.54,15.16-51.79,15.19-71.45,9.8-58.97-16.18-98.19-106.72-103.95-162.76-4.26-15.25,32.74-28.17,45.27-30.86,17.75-3.82,12.73-1.09,17.02,9.81,1.74,4.42,2.46,18.55,9.98,15.04,5.8-2.7.95-4.99,8.91-6.48,7.96-1.48,11.6-2.97,17.4-1.08,5.81,1.89,5.8,3.1,6.75,3.1s.67-1.49.95-3.78c.27-2.29-.27-3.78-3.37-4.72-3.11-.94-7.02-.94-11.07-1.62-4.05-.68-7.29-.4-8.77-3.91-1.48-3.51-4.88-50.69-7.32-59.29-2.44-8.61-1.46-20.22-12.21-38.77-10.75-18.55-13.24-15.13-13.24-15.13,0,0-1.62-1.89-4.86,2.43-3.24,4.32-32.07,51.77-38.09,63.76-13.96,8.28,27.04-60.06,34.58-68.36,10.25-11.28,15.13-3.51,15.13-3.51,0,0,9.73,12.43,15.4,29.18,5.67,16.75,13.51,63.76,13.51,63.76,28.19-14.23,30.32-18.14,38.27-25.27-12.2-18.12-27.02-49.69-37.45-75.24-2.07-5.06,2.62-5.12,7.31-2.62,18.75,10.59,33.25,11.35,53.47,10.19l9.46-.54c-.36.82,1.99,1.26,1.28,1.68-17.65,10.3-39.59,2.24-52.16-.69-9.65-2.77-7.75,3.48-4.51,7.92,3.93,5.39,26.48,56.2,29.99,61.33,3.51,5.13,6.22,11.07,8.38,11.61,2.16.54,3.11-.23,3.11-.23,8.24-13.57,20.67-2.05,26.47,7.32,3.71,5.7,2.19.98,3.69-1.9,1.87-3.58,3.92-9.46,1.31-12.38-2.31-2.57-8.69,1.08-13.29-2.53-3.25-2.54-7.66-4.72-14.84-19.74-7.19-15.02,3.41-21.53,3.41-21.53,23.04-16.76,20.37-15.05,38.05-22.57-4.1-15.39.86-15.37.89-28.62-22.6-24.41-24.12-43.32-25.47-55.75Z"/>
      <path class="cls-8" d="M482.49,136.55l1.54-7.92s1.73-2.31-1.73-4.04c-3.47-1.73-17.16-15.17-35.22-21.08-.69.51-11.19,27.28-38.97,20.21-19.07-4.84-24.5-17.17-26.23-29.01-1.73-11.84,6.32-22.95,6.32-22.95,0,0-14.24-17.19-33.72-28.81-19.48-11.61-22.87-17.38-28.35-13.92-5.48,3.47-13.16,7.51-13.16,17.9,0,11.52-4.04,54.6,21.27,94.73,3,4.75,3.91,4.84,8.5,9.04-3.07,13.39-5.93,24.41-2.18,30.47,3.75,6.06,6.12,2.56,7.01,1.73.89-.83,2.52-6.06,6.85-3.17,4.33,2.89,1.89,3.15,8.66,5.77,6.76,2.62,7.93.58,13.37-1.08,5.44-1.67,5.69-7.87,16.37-10.76,10.68-2.88,13.28-4.04,29.16-6.64,15.88-2.6,28.03-5.58,37.59-9.83,9.57-4.25,22.87-11.62,20.44-13.09-2.44-1.47-4.47-.99-9.82,1.26-5.35,2.25-17.32,5.77-36.95,5.2-19.63-.58-35.51-.29-47.06-.58-11.55-.29-12.41-.29-12.41-.29,0,0-1.6,8.71-7.51,8.66-5.9-.05-8.52-3.1-8.63-8.08-.1-4.99,2.86-9.66,7.92-9.69,5.06-.02,7.77,4.7,7.77,4.7,0,0,44.91,2.1,60.78.66,15.88-1.44,36.32-4.69,48.41-9.4Z"/>
      <path class="cls-6" d="M422.14,87.51c3.29,0,5.96,2.79,5.96,6.23,0,3.44-2.67,6.22-5.96,6.22s-5.96-2.79-5.96-6.22c0-3.44,2.67-6.23,5.96-6.23h0ZM414.81,62.23c-16.05,0-29.07,13.01-29.07,29.06,0,16.05,13.02,29.06,29.07,29.06,16.04,0,29.06-13.01,29.06-29.06,0-16.05-13.01-29.07-29.06-29.07Z"/>
    </g>
  </g>
</svg>